<?xml version="1.0" encoding="utf-8" standalone="no"?>
<!DOCTYPE svg PUBLIC "-//W3C//DTD SVG 1.1//EN"
  "http://www.w3.org/Graphics/SVG/1.1/DTD/svg11.dtd">
<svg xmlns:xlink="http://www.w3.org/1999/xlink" width="635.4pt" height="256.717608pt" viewBox="0 0 635.4 256.717608" xmlns="http://www.w3.org/2000/svg" version="1.1">
 <metadata>
  <rdf:RDF xmlns:dc="http://purl.org/dc/elements/1.1/" xmlns:cc="http://creativecommons.org/ns#" xmlns:rdf="http://www.w3.org/1999/02/22-rdf-syntax-ns#">
   <cc:Work>
    <dc:type rdf:resource="http://purl.org/dc/dcmitype/StillImage"/>
    <dc:date>2026-05-21T11:58:15.661234</dc:date>
    <dc:format>image/svg+xml</dc:format>
    <dc:creator>
     <cc:Agent>
      <dc:title>Matplotlib v3.10.8, https://matplotlib.org/</dc:title>
     </cc:Agent>
    </dc:creator>
   </cc:Work>
  </rdf:RDF>
 </metadata>
 <defs>
  <style type="text/css">*{stroke-linejoin: round; stroke-linecap: butt}</style>
 </defs>
 <g id="figure_1">
  <g id="patch_1">
   <path d="M 0 256.717608 
L 635.4 256.717608 
L 635.4 0 
L 0 0 
L 0 256.717608 
z
" style="fill: none"/>
  </g>
  <g id="axes_1">
   <g id="patch_2">
    <path d="M 10.8 245.917608 
L 289.8 245.917608 
L 289.8 28.677969 
L 10.8 28.677969 
L 10.8 245.917608 
z
" style="fill: none"/>
   </g>
   <g id="PathCollection_1">
    <defs>
     <path id="m7c5f891e27" d="M 0 2.54951 
C 0.676138 2.54951 1.324674 2.280877 1.802776 1.802776 
C 2.280877 1.324674 2.54951 0.676138 2.54951 0 
C 2.54951 -0.676138 2.280877 -1.324674 1.802776 -1.802776 
C 1.324674 -2.280877 0.676138 -2.54951 0 -2.54951 
C -0.676138 -2.54951 -1.324674 -2.280877 -1.802776 -1.802776 
C -2.280877 -1.324674 -2.54951 -0.676138 -2.54951 0 
C -2.54951 0.676138 -2.280877 1.324674 -1.802776 1.802776 
C -1.324674 2.280877 -0.676138 2.54951 0 2.54951 
z
" style="stroke: #0d0f12; stroke-width: 0.4"/>
    </defs>
    <g clip-path="url(#p6b16b7a09f)">
     <use xlink:href="#m7c5f891e27" x="154.17459" y="135.889218" style="fill: #5fb6a6; stroke: #0d0f12; stroke-width: 0.4"/>
     <use xlink:href="#m7c5f891e27" x="75.320027" y="206.692408" style="fill: #5fb6a6; stroke: #0d0f12; stroke-width: 0.4"/>
     <use xlink:href="#m7c5f891e27" x="273.35654" y="45.584799" style="fill: #5fb6a6; stroke: #0d0f12; stroke-width: 0.4"/>
     <use xlink:href="#m7c5f891e27" x="164.528382" y="112.437507" style="fill: #5fb6a6; stroke: #0d0f12; stroke-width: 0.4"/>
     <use xlink:href="#m7c5f891e27" x="157.646067" y="134.337859" style="fill: #5fb6a6; stroke: #0d0f12; stroke-width: 0.4"/>
     <use xlink:href="#m7c5f891e27" x="196.5341" y="108.946023" style="fill: #5fb6a6; stroke: #0d0f12; stroke-width: 0.4"/>
     <use xlink:href="#m7c5f891e27" x="122.911165" y="157.302989" style="fill: #5fb6a6; stroke: #0d0f12; stroke-width: 0.4"/>
     <use xlink:href="#m7c5f891e27" x="177.778253" y="116.738757" style="fill: #5fb6a6; stroke: #0d0f12; stroke-width: 0.4"/>
     <use xlink:href="#m7c5f891e27" x="168.538298" y="128.872181" style="fill: #5fb6a6; stroke: #0d0f12; stroke-width: 0.4"/>
     <use xlink:href="#m7c5f891e27" x="141.4919" y="148.102521" style="fill: #5fb6a6; stroke: #0d0f12; stroke-width: 0.4"/>
     <use xlink:href="#m7c5f891e27" x="203.392503" y="98.293074" style="fill: #5fb6a6; stroke: #0d0f12; stroke-width: 0.4"/>
     <use xlink:href="#m7c5f891e27" x="185.476696" y="105.457962" style="fill: #5fb6a6; stroke: #0d0f12; stroke-width: 0.4"/>
     <use xlink:href="#m7c5f891e27" x="132.842619" y="130.313753" style="fill: #5fb6a6; stroke: #0d0f12; stroke-width: 0.4"/>
     <use xlink:href="#m7c5f891e27" x="211.661756" y="118.344186" style="fill: #5fb6a6; stroke: #0d0f12; stroke-width: 0.4"/>
     <use xlink:href="#m7c5f891e27" x="38.780807" y="214.761511" style="fill: #5fb6a6; stroke: #0d0f12; stroke-width: 0.4"/>
     <use xlink:href="#m7c5f891e27" x="201.821733" y="99.98936" style="fill: #5fb6a6; stroke: #0d0f12; stroke-width: 0.4"/>
     <use xlink:href="#m7c5f891e27" x="228.57825" y="76.741699" style="fill: #5fb6a6; stroke: #0d0f12; stroke-width: 0.4"/>
     <use xlink:href="#m7c5f891e27" x="176.537005" y="112.250997" style="fill: #5fb6a6; stroke: #0d0f12; stroke-width: 0.4"/>
     <use xlink:href="#m7c5f891e27" x="174.287608" y="105.609895" style="fill: #5fb6a6; stroke: #0d0f12; stroke-width: 0.4"/>
     <use xlink:href="#m7c5f891e27" x="95.396089" y="167.918996" style="fill: #5fb6a6; stroke: #0d0f12; stroke-width: 0.4"/>
     <use xlink:href="#m7c5f891e27" x="218.218013" y="68.007422" style="fill: #5fb6a6; stroke: #0d0f12; stroke-width: 0.4"/>
     <use xlink:href="#m7c5f891e27" x="95.015949" y="177.040347" style="fill: #5fb6a6; stroke: #0d0f12; stroke-width: 0.4"/>
     <use xlink:href="#m7c5f891e27" x="158.619788" y="113.14602" style="fill: #5fb6a6; stroke: #0d0f12; stroke-width: 0.4"/>
     <use xlink:href="#m7c5f891e27" x="183.317082" y="94.302051" style="fill: #5fb6a6; stroke: #0d0f12; stroke-width: 0.4"/>
     <use xlink:href="#m7c5f891e27" x="101.83033" y="143.254839" style="fill: #5fb6a6; stroke: #0d0f12; stroke-width: 0.4"/>
     <use xlink:href="#m7c5f891e27" x="169.866724" y="139.113294" style="fill: #5fb6a6; stroke: #0d0f12; stroke-width: 0.4"/>
     <use xlink:href="#m7c5f891e27" x="198.548842" y="87.119074" style="fill: #5fb6a6; stroke: #0d0f12; stroke-width: 0.4"/>
     <use xlink:href="#m7c5f891e27" x="189.769102" y="95.035217" style="fill: #5fb6a6; stroke: #0d0f12; stroke-width: 0.4"/>
     <use xlink:href="#m7c5f891e27" x="277.118182" y="55.23954" style="fill: #5fb6a6; stroke: #0d0f12; stroke-width: 0.4"/>
     <use xlink:href="#m7c5f891e27" x="125.726837" y="155.417335" style="fill: #5fb6a6; stroke: #0d0f12; stroke-width: 0.4"/>
     <use xlink:href="#m7c5f891e27" x="184.194104" y="114.414987" style="fill: #5fb6a6; stroke: #0d0f12; stroke-width: 0.4"/>
     <use xlink:href="#m7c5f891e27" x="148.089587" y="133.689456" style="fill: #5fb6a6; stroke: #0d0f12; stroke-width: 0.4"/>
     <use xlink:href="#m7c5f891e27" x="161.25523" y="139.232019" style="fill: #5fb6a6; stroke: #0d0f12; stroke-width: 0.4"/>
     <use xlink:href="#m7c5f891e27" x="23.481818" y="236.043079" style="fill: #5fb6a6; stroke: #0d0f12; stroke-width: 0.4"/>
     <use xlink:href="#m7c5f891e27" x="217.012362" y="92.102542" style="fill: #5fb6a6; stroke: #0d0f12; stroke-width: 0.4"/>
     <use xlink:href="#m7c5f891e27" x="229.333857" y="86.222986" style="fill: #5fb6a6; stroke: #0d0f12; stroke-width: 0.4"/>
     <use xlink:href="#m7c5f891e27" x="137.276875" y="131.930581" style="fill: #5fb6a6; stroke: #0d0f12; stroke-width: 0.4"/>
     <use xlink:href="#m7c5f891e27" x="122.431822" y="163.836182" style="fill: #5fb6a6; stroke: #0d0f12; stroke-width: 0.4"/>
     <use xlink:href="#m7c5f891e27" x="164.740175" y="98.861965" style="fill: #5fb6a6; stroke: #0d0f12; stroke-width: 0.4"/>
     <use xlink:href="#m7c5f891e27" x="186.740476" y="104.660193" style="fill: #5fb6a6; stroke: #0d0f12; stroke-width: 0.4"/>
     <use xlink:href="#m7c5f891e27" x="128.058615" y="152.99037" style="fill: #5fb6a6; stroke: #0d0f12; stroke-width: 0.4"/>
     <use xlink:href="#m7c5f891e27" x="197.982965" y="105.332364" style="fill: #5fb6a6; stroke: #0d0f12; stroke-width: 0.4"/>
     <use xlink:href="#m7c5f891e27" x="120.282667" y="149.880026" style="fill: #5fb6a6; stroke: #0d0f12; stroke-width: 0.4"/>
     <use xlink:href="#m7c5f891e27" x="122.038972" y="144.489424" style="fill: #5fb6a6; stroke: #0d0f12; stroke-width: 0.4"/>
     <use xlink:href="#m7c5f891e27" x="189.687467" y="119.957293" style="fill: #5fb6a6; stroke: #0d0f12; stroke-width: 0.4"/>
     <use xlink:href="#m7c5f891e27" x="208.094585" y="107.215928" style="fill: #5fb6a6; stroke: #0d0f12; stroke-width: 0.4"/>
     <use xlink:href="#m7c5f891e27" x="144.210253" y="145.800703" style="fill: #5fb6a6; stroke: #0d0f12; stroke-width: 0.4"/>
     <use xlink:href="#m7c5f891e27" x="150.104973" y="130.475685" style="fill: #5fb6a6; stroke: #0d0f12; stroke-width: 0.4"/>
     <use xlink:href="#m7c5f891e27" x="120.341584" y="157.553483" style="fill: #5fb6a6; stroke: #0d0f12; stroke-width: 0.4"/>
     <use xlink:href="#m7c5f891e27" x="105.878083" y="167.374018" style="fill: #5fb6a6; stroke: #0d0f12; stroke-width: 0.4"/>
     <use xlink:href="#m7c5f891e27" x="79.083429" y="175.034536" style="fill: #5fb6a6; stroke: #0d0f12; stroke-width: 0.4"/>
     <use xlink:href="#m7c5f891e27" x="201.947677" y="89.352719" style="fill: #5fb6a6; stroke: #0d0f12; stroke-width: 0.4"/>
     <use xlink:href="#m7c5f891e27" x="254.415909" y="38.552498" style="fill: #5fb6a6; stroke: #0d0f12; stroke-width: 0.4"/>
     <use xlink:href="#m7c5f891e27" x="161.973097" y="130.558302" style="fill: #5fb6a6; stroke: #0d0f12; stroke-width: 0.4"/>
     <use xlink:href="#m7c5f891e27" x="218.691007" y="106.33895" style="fill: #5fb6a6; stroke: #0d0f12; stroke-width: 0.4"/>
     <use xlink:href="#m7c5f891e27" x="179.045023" y="127.617444" style="fill: #5fb6a6; stroke: #0d0f12; stroke-width: 0.4"/>
     <use xlink:href="#m7c5f891e27" x="123.592014" y="172.854834" style="fill: #5fb6a6; stroke: #0d0f12; stroke-width: 0.4"/>
     <use xlink:href="#m7c5f891e27" x="196.918305" y="106.663874" style="fill: #5fb6a6; stroke: #0d0f12; stroke-width: 0.4"/>
     <use xlink:href="#m7c5f891e27" x="158.551295" y="103.575693" style="fill: #5fb6a6; stroke: #0d0f12; stroke-width: 0.4"/>
     <use xlink:href="#m7c5f891e27" x="196.080579" y="104.374816" style="fill: #5fb6a6; stroke: #0d0f12; stroke-width: 0.4"/>
     <use xlink:href="#m7c5f891e27" x="123.322426" y="146.922973" style="fill: #5fb6a6; stroke: #0d0f12; stroke-width: 0.4"/>
     <use xlink:href="#m7c5f891e27" x="170.755307" y="109.56386" style="fill: #5fb6a6; stroke: #0d0f12; stroke-width: 0.4"/>
     <use xlink:href="#m7c5f891e27" x="178.713559" y="123.911541" style="fill: #5fb6a6; stroke: #0d0f12; stroke-width: 0.4"/>
     <use xlink:href="#m7c5f891e27" x="119.520219" y="155.705449" style="fill: #5fb6a6; stroke: #0d0f12; stroke-width: 0.4"/>
     <use xlink:href="#m7c5f891e27" x="80.67027" y="178.585663" style="fill: #5fb6a6; stroke: #0d0f12; stroke-width: 0.4"/>
     <use xlink:href="#m7c5f891e27" x="173.192387" y="108.637492" style="fill: #5fb6a6; stroke: #0d0f12; stroke-width: 0.4"/>
     <use xlink:href="#m7c5f891e27" x="199.328805" y="114.103381" style="fill: #5fb6a6; stroke: #0d0f12; stroke-width: 0.4"/>
     <use xlink:href="#m7c5f891e27" x="173.111589" y="124.068674" style="fill: #5fb6a6; stroke: #0d0f12; stroke-width: 0.4"/>
     <use xlink:href="#m7c5f891e27" x="254.611021" y="72.399824" style="fill: #5fb6a6; stroke: #0d0f12; stroke-width: 0.4"/>
     <use xlink:href="#m7c5f891e27" x="157.81745" y="139.421343" style="fill: #5fb6a6; stroke: #0d0f12; stroke-width: 0.4"/>
     <use xlink:href="#m7c5f891e27" x="126.770137" y="141.643407" style="fill: #5fb6a6; stroke: #0d0f12; stroke-width: 0.4"/>
     <use xlink:href="#m7c5f891e27" x="150.663127" y="126.013691" style="fill: #5fb6a6; stroke: #0d0f12; stroke-width: 0.4"/>
     <use xlink:href="#m7c5f891e27" x="103.956897" y="148.368083" style="fill: #5fb6a6; stroke: #0d0f12; stroke-width: 0.4"/>
     <use xlink:href="#m7c5f891e27" x="162.894222" y="100.511843" style="fill: #5fb6a6; stroke: #0d0f12; stroke-width: 0.4"/>
     <use xlink:href="#m7c5f891e27" x="174.813958" y="102.210429" style="fill: #5fb6a6; stroke: #0d0f12; stroke-width: 0.4"/>
     <use xlink:href="#m7c5f891e27" x="105.560786" y="150.614828" style="fill: #5fb6a6; stroke: #0d0f12; stroke-width: 0.4"/>
     <use xlink:href="#m7c5f891e27" x="104.936057" y="163.379747" style="fill: #5fb6a6; stroke: #0d0f12; stroke-width: 0.4"/>
     <use xlink:href="#m7c5f891e27" x="151.95675" y="134.36239" style="fill: #5fb6a6; stroke: #0d0f12; stroke-width: 0.4"/>
     <use xlink:href="#m7c5f891e27" x="191.312768" y="97.573465" style="fill: #5fb6a6; stroke: #0d0f12; stroke-width: 0.4"/>
     <use xlink:href="#m7c5f891e27" x="187.306288" y="111.166336" style="fill: #5fb6a6; stroke: #0d0f12; stroke-width: 0.4"/>
     <use xlink:href="#m7c5f891e27" x="74.371569" y="185.051677" style="fill: #5fb6a6; stroke: #0d0f12; stroke-width: 0.4"/>
     <use xlink:href="#m7c5f891e27" x="93.908242" y="191.799644" style="fill: #5fb6a6; stroke: #0d0f12; stroke-width: 0.4"/>
     <use xlink:href="#m7c5f891e27" x="187.904851" y="112.888031" style="fill: #5fb6a6; stroke: #0d0f12; stroke-width: 0.4"/>
     <use xlink:href="#m7c5f891e27" x="172.603065" y="105.484125" style="fill: #5fb6a6; stroke: #0d0f12; stroke-width: 0.4"/>
     <use xlink:href="#m7c5f891e27" x="196.178309" y="101.945346" style="fill: #5fb6a6; stroke: #0d0f12; stroke-width: 0.4"/>
     <use xlink:href="#m7c5f891e27" x="120.765394" y="143.581906" style="fill: #5fb6a6; stroke: #0d0f12; stroke-width: 0.4"/>
     <use xlink:href="#m7c5f891e27" x="151.911331" y="142.080752" style="fill: #5fb6a6; stroke: #0d0f12; stroke-width: 0.4"/>
     <use xlink:href="#m7c5f891e27" x="221.265898" y="83.803603" style="fill: #5fb6a6; stroke: #0d0f12; stroke-width: 0.4"/>
     <use xlink:href="#m7c5f891e27" x="70.656966" y="174.606481" style="fill: #5fb6a6; stroke: #0d0f12; stroke-width: 0.4"/>
     <use xlink:href="#m7c5f891e27" x="130.359227" y="126.939653" style="fill: #5fb6a6; stroke: #0d0f12; stroke-width: 0.4"/>
    </g>
   </g>
   <g id="matplotlib.axis_1"/>
   <g id="matplotlib.axis_2"/>
   <g id="patch_3">
    <path d="M 10.8 245.917608 
L 10.8 28.677969 
" style="fill: none; stroke: #2a2e35; stroke-linejoin: miter; stroke-linecap: square"/>
   </g>
   <g id="patch_4">
    <path d="M 10.8 245.917608 
L 289.8 245.917608 
" style="fill: none; stroke: #2a2e35; stroke-linejoin: miter; stroke-linecap: square"/>
   </g>
   <g id="patch_5">
    <path d="M 274.61715 45.206389 
Q 159.354278 126.738936 46.282032 206.721917 
" style="fill: none; stroke: #e8643c; stroke-width: 2.4; stroke-linecap: round"/>
    <path d="M 51.586718 205.909326 
L 46.282032 206.721917 
L 48.814771 201.990614 
z
" style="fill: #e8643c; stroke: #e8643c; stroke-width: 2.4; stroke-linecap: round"/>
   </g>
   <g id="text_1">
    <!-- PC1 -->
    <g style="fill: #e8643c" transform="translate(15.455047 222.660316) scale(0.12 -0.12)">
     <defs>
      <path id="DejaVuSans-Bold-50" d="M 588 4666 
L 2584 4666 
Q 3475 4666 3951 4270 
Q 4428 3875 4428 3144 
Q 4428 2409 3951 2014 
Q 3475 1619 2584 1619 
L 1791 1619 
L 1791 0 
L 588 0 
L 588 4666 
z
M 1791 3794 
L 1791 2491 
L 2456 2491 
Q 2806 2491 2997 2661 
Q 3188 2831 3188 3144 
Q 3188 3456 2997 3625 
Q 2806 3794 2456 3794 
L 1791 3794 
z
" transform="scale(0.015625)"/>
      <path id="DejaVuSans-Bold-43" d="M 4288 256 
Q 3956 84 3597 -3 
Q 3238 -91 2847 -91 
Q 1681 -91 1000 561 
Q 319 1213 319 2328 
Q 319 3447 1000 4098 
Q 1681 4750 2847 4750 
Q 3238 4750 3597 4662 
Q 3956 4575 4288 4403 
L 4288 3438 
Q 3953 3666 3628 3772 
Q 3303 3878 2944 3878 
Q 2300 3878 1931 3465 
Q 1563 3053 1563 2328 
Q 1563 1606 1931 1193 
Q 2300 781 2944 781 
Q 3303 781 3628 887 
Q 3953 994 4288 1222 
L 4288 256 
z
" transform="scale(0.015625)"/>
      <path id="DejaVuSans-Bold-31" d="M 750 831 
L 1813 831 
L 1813 3847 
L 722 3622 
L 722 4441 
L 1806 4666 
L 2950 4666 
L 2950 831 
L 4013 831 
L 4013 0 
L 750 0 
L 750 831 
z
" transform="scale(0.015625)"/>
     </defs>
     <use xlink:href="#DejaVuSans-Bold-50"/>
     <use xlink:href="#DejaVuSans-Bold-43" transform="translate(73.291016 0)"/>
     <use xlink:href="#DejaVuSans-Bold-31" transform="translate(146.679688 0)"/>
    </g>
   </g>
   <g id="patch_6">
    <path d="M 147.20792 109.570555 
Q 159.353074 126.740206 169.948663 141.71923 
" style="fill: none; stroke: #d8a657; stroke-width: 2.4; stroke-linecap: round"/>
    <path d="M 169.136072 136.414544 
L 169.948663 141.71923 
L 165.217359 139.186491 
z
" style="fill: #d8a657; stroke: #d8a657; stroke-width: 2.4; stroke-linecap: round"/>
   </g>
   <g id="text_2">
    <!-- PC2 -->
    <g style="fill: #d8a657" transform="translate(161.272069 151.108479) scale(0.12 -0.12)">
     <defs>
      <path id="DejaVuSans-Bold-32" d="M 1844 884 
L 3897 884 
L 3897 0 
L 506 0 
L 506 884 
L 2209 2388 
Q 2438 2594 2547 2791 
Q 2656 2988 2656 3200 
Q 2656 3528 2436 3728 
Q 2216 3928 1850 3928 
Q 1569 3928 1234 3808 
Q 900 3688 519 3450 
L 519 4475 
Q 925 4609 1322 4679 
Q 1719 4750 2100 4750 
Q 2938 4750 3402 4381 
Q 3866 4013 3866 3353 
Q 3866 2972 3669 2642 
Q 3472 2313 2841 1759 
L 1844 884 
z
" transform="scale(0.015625)"/>
     </defs>
     <use xlink:href="#DejaVuSans-Bold-50"/>
     <use xlink:href="#DejaVuSans-Bold-43" transform="translate(73.291016 0)"/>
     <use xlink:href="#DejaVuSans-Bold-32" transform="translate(146.679688 0)"/>
    </g>
   </g>
   <g id="text_3">
    <!-- Original axes (correlated features) -->
    <g style="fill: #ece7df" transform="translate(38.634063 20.677969) scale(0.13 -0.13)">
     <defs>
      <path id="DejaVuSans-4f" d="M 2522 4238 
Q 1834 4238 1429 3725 
Q 1025 3213 1025 2328 
Q 1025 1447 1429 934 
Q 1834 422 2522 422 
Q 3209 422 3611 934 
Q 4013 1447 4013 2328 
Q 4013 3213 3611 3725 
Q 3209 4238 2522 4238 
z
M 2522 4750 
Q 3503 4750 4090 4092 
Q 4678 3434 4678 2328 
Q 4678 1225 4090 567 
Q 3503 -91 2522 -91 
Q 1538 -91 948 565 
Q 359 1222 359 2328 
Q 359 3434 948 4092 
Q 1538 4750 2522 4750 
z
" transform="scale(0.015625)"/>
      <path id="DejaVuSans-72" d="M 2631 2963 
Q 2534 3019 2420 3045 
Q 2306 3072 2169 3072 
Q 1681 3072 1420 2755 
Q 1159 2438 1159 1844 
L 1159 0 
L 581 0 
L 581 3500 
L 1159 3500 
L 1159 2956 
Q 1341 3275 1631 3429 
Q 1922 3584 2338 3584 
Q 2397 3584 2469 3576 
Q 2541 3569 2628 3553 
L 2631 2963 
z
" transform="scale(0.015625)"/>
      <path id="DejaVuSans-69" d="M 603 3500 
L 1178 3500 
L 1178 0 
L 603 0 
L 603 3500 
z
M 603 4863 
L 1178 4863 
L 1178 4134 
L 603 4134 
L 603 4863 
z
" transform="scale(0.015625)"/>
      <path id="DejaVuSans-67" d="M 2906 1791 
Q 2906 2416 2648 2759 
Q 2391 3103 1925 3103 
Q 1463 3103 1205 2759 
Q 947 2416 947 1791 
Q 947 1169 1205 825 
Q 1463 481 1925 481 
Q 2391 481 2648 825 
Q 2906 1169 2906 1791 
z
M 3481 434 
Q 3481 -459 3084 -895 
Q 2688 -1331 1869 -1331 
Q 1566 -1331 1297 -1286 
Q 1028 -1241 775 -1147 
L 775 -588 
Q 1028 -725 1275 -790 
Q 1522 -856 1778 -856 
Q 2344 -856 2625 -561 
Q 2906 -266 2906 331 
L 2906 616 
Q 2728 306 2450 153 
Q 2172 0 1784 0 
Q 1141 0 747 490 
Q 353 981 353 1791 
Q 353 2603 747 3093 
Q 1141 3584 1784 3584 
Q 2172 3584 2450 3431 
Q 2728 3278 2906 2969 
L 2906 3500 
L 3481 3500 
L 3481 434 
z
" transform="scale(0.015625)"/>
      <path id="DejaVuSans-6e" d="M 3513 2113 
L 3513 0 
L 2938 0 
L 2938 2094 
Q 2938 2591 2744 2837 
Q 2550 3084 2163 3084 
Q 1697 3084 1428 2787 
Q 1159 2491 1159 1978 
L 1159 0 
L 581 0 
L 581 3500 
L 1159 3500 
L 1159 2956 
Q 1366 3272 1645 3428 
Q 1925 3584 2291 3584 
Q 2894 3584 3203 3211 
Q 3513 2838 3513 2113 
z
" transform="scale(0.015625)"/>
      <path id="DejaVuSans-61" d="M 2194 1759 
Q 1497 1759 1228 1600 
Q 959 1441 959 1056 
Q 959 750 1161 570 
Q 1363 391 1709 391 
Q 2188 391 2477 730 
Q 2766 1069 2766 1631 
L 2766 1759 
L 2194 1759 
z
M 3341 1997 
L 3341 0 
L 2766 0 
L 2766 531 
Q 2569 213 2275 61 
Q 1981 -91 1556 -91 
Q 1019 -91 701 211 
Q 384 513 384 1019 
Q 384 1609 779 1909 
Q 1175 2209 1959 2209 
L 2766 2209 
L 2766 2266 
Q 2766 2663 2505 2880 
Q 2244 3097 1772 3097 
Q 1472 3097 1187 3025 
Q 903 2953 641 2809 
L 641 3341 
Q 956 3463 1253 3523 
Q 1550 3584 1831 3584 
Q 2591 3584 2966 3190 
Q 3341 2797 3341 1997 
z
" transform="scale(0.015625)"/>
      <path id="DejaVuSans-6c" d="M 603 4863 
L 1178 4863 
L 1178 0 
L 603 0 
L 603 4863 
z
" transform="scale(0.015625)"/>
      <path id="DejaVuSans-20" transform="scale(0.015625)"/>
      <path id="DejaVuSans-78" d="M 3513 3500 
L 2247 1797 
L 3578 0 
L 2900 0 
L 1881 1375 
L 863 0 
L 184 0 
L 1544 1831 
L 300 3500 
L 978 3500 
L 1906 2253 
L 2834 3500 
L 3513 3500 
z
" transform="scale(0.015625)"/>
      <path id="DejaVuSans-65" d="M 3597 1894 
L 3597 1613 
L 953 1613 
Q 991 1019 1311 708 
Q 1631 397 2203 397 
Q 2534 397 2845 478 
Q 3156 559 3463 722 
L 3463 178 
Q 3153 47 2828 -22 
Q 2503 -91 2169 -91 
Q 1331 -91 842 396 
Q 353 884 353 1716 
Q 353 2575 817 3079 
Q 1281 3584 2069 3584 
Q 2775 3584 3186 3129 
Q 3597 2675 3597 1894 
z
M 3022 2063 
Q 3016 2534 2758 2815 
Q 2500 3097 2075 3097 
Q 1594 3097 1305 2825 
Q 1016 2553 972 2059 
L 3022 2063 
z
" transform="scale(0.015625)"/>
      <path id="DejaVuSans-73" d="M 2834 3397 
L 2834 2853 
Q 2591 2978 2328 3040 
Q 2066 3103 1784 3103 
Q 1356 3103 1142 2972 
Q 928 2841 928 2578 
Q 928 2378 1081 2264 
Q 1234 2150 1697 2047 
L 1894 2003 
Q 2506 1872 2764 1633 
Q 3022 1394 3022 966 
Q 3022 478 2636 193 
Q 2250 -91 1575 -91 
Q 1294 -91 989 -36 
Q 684 19 347 128 
L 347 722 
Q 666 556 975 473 
Q 1284 391 1588 391 
Q 1994 391 2212 530 
Q 2431 669 2431 922 
Q 2431 1156 2273 1281 
Q 2116 1406 1581 1522 
L 1381 1569 
Q 847 1681 609 1914 
Q 372 2147 372 2553 
Q 372 3047 722 3315 
Q 1072 3584 1716 3584 
Q 2034 3584 2315 3537 
Q 2597 3491 2834 3397 
z
" transform="scale(0.015625)"/>
      <path id="DejaVuSans-28" d="M 1984 4856 
Q 1566 4138 1362 3434 
Q 1159 2731 1159 2009 
Q 1159 1288 1364 580 
Q 1569 -128 1984 -844 
L 1484 -844 
Q 1016 -109 783 600 
Q 550 1309 550 2009 
Q 550 2706 781 3412 
Q 1013 4119 1484 4856 
L 1984 4856 
z
" transform="scale(0.015625)"/>
      <path id="DejaVuSans-63" d="M 3122 3366 
L 3122 2828 
Q 2878 2963 2633 3030 
Q 2388 3097 2138 3097 
Q 1578 3097 1268 2742 
Q 959 2388 959 1747 
Q 959 1106 1268 751 
Q 1578 397 2138 397 
Q 2388 397 2633 464 
Q 2878 531 3122 666 
L 3122 134 
Q 2881 22 2623 -34 
Q 2366 -91 2075 -91 
Q 1284 -91 818 406 
Q 353 903 353 1747 
Q 353 2603 823 3093 
Q 1294 3584 2113 3584 
Q 2378 3584 2631 3529 
Q 2884 3475 3122 3366 
z
" transform="scale(0.015625)"/>
      <path id="DejaVuSans-6f" d="M 1959 3097 
Q 1497 3097 1228 2736 
Q 959 2375 959 1747 
Q 959 1119 1226 758 
Q 1494 397 1959 397 
Q 2419 397 2687 759 
Q 2956 1122 2956 1747 
Q 2956 2369 2687 2733 
Q 2419 3097 1959 3097 
z
M 1959 3584 
Q 2709 3584 3137 3096 
Q 3566 2609 3566 1747 
Q 3566 888 3137 398 
Q 2709 -91 1959 -91 
Q 1206 -91 779 398 
Q 353 888 353 1747 
Q 353 2609 779 3096 
Q 1206 3584 1959 3584 
z
" transform="scale(0.015625)"/>
      <path id="DejaVuSans-74" d="M 1172 4494 
L 1172 3500 
L 2356 3500 
L 2356 3053 
L 1172 3053 
L 1172 1153 
Q 1172 725 1289 603 
Q 1406 481 1766 481 
L 2356 481 
L 2356 0 
L 1766 0 
Q 1100 0 847 248 
Q 594 497 594 1153 
L 594 3053 
L 172 3053 
L 172 3500 
L 594 3500 
L 594 4494 
L 1172 4494 
z
" transform="scale(0.015625)"/>
      <path id="DejaVuSans-64" d="M 2906 2969 
L 2906 4863 
L 3481 4863 
L 3481 0 
L 2906 0 
L 2906 525 
Q 2725 213 2448 61 
Q 2172 -91 1784 -91 
Q 1150 -91 751 415 
Q 353 922 353 1747 
Q 353 2572 751 3078 
Q 1150 3584 1784 3584 
Q 2172 3584 2448 3432 
Q 2725 3281 2906 2969 
z
M 947 1747 
Q 947 1113 1208 752 
Q 1469 391 1925 391 
Q 2381 391 2643 752 
Q 2906 1113 2906 1747 
Q 2906 2381 2643 2742 
Q 2381 3103 1925 3103 
Q 1469 3103 1208 2742 
Q 947 2381 947 1747 
z
" transform="scale(0.015625)"/>
      <path id="DejaVuSans-66" d="M 2375 4863 
L 2375 4384 
L 1825 4384 
Q 1516 4384 1395 4259 
Q 1275 4134 1275 3809 
L 1275 3500 
L 2222 3500 
L 2222 3053 
L 1275 3053 
L 1275 0 
L 697 0 
L 697 3053 
L 147 3053 
L 147 3500 
L 697 3500 
L 697 3744 
Q 697 4328 969 4595 
Q 1241 4863 1831 4863 
L 2375 4863 
z
" transform="scale(0.015625)"/>
      <path id="DejaVuSans-75" d="M 544 1381 
L 544 3500 
L 1119 3500 
L 1119 1403 
Q 1119 906 1312 657 
Q 1506 409 1894 409 
Q 2359 409 2629 706 
Q 2900 1003 2900 1516 
L 2900 3500 
L 3475 3500 
L 3475 0 
L 2900 0 
L 2900 538 
Q 2691 219 2414 64 
Q 2138 -91 1772 -91 
Q 1169 -91 856 284 
Q 544 659 544 1381 
z
M 1991 3584 
L 1991 3584 
z
" transform="scale(0.015625)"/>
      <path id="DejaVuSans-29" d="M 513 4856 
L 1013 4856 
Q 1481 4119 1714 3412 
Q 1947 2706 1947 2009 
Q 1947 1309 1714 600 
Q 1481 -109 1013 -844 
L 513 -844 
Q 928 -128 1133 580 
Q 1338 1288 1338 2009 
Q 1338 2731 1133 3434 
Q 928 4138 513 4856 
z
" transform="scale(0.015625)"/>
     </defs>
     <use xlink:href="#DejaVuSans-4f"/>
     <use xlink:href="#DejaVuSans-72" transform="translate(78.710938 0)"/>
     <use xlink:href="#DejaVuSans-69" transform="translate(119.824219 0)"/>
     <use xlink:href="#DejaVuSans-67" transform="translate(147.607422 0)"/>
     <use xlink:href="#DejaVuSans-69" transform="translate(211.083984 0)"/>
     <use xlink:href="#DejaVuSans-6e" transform="translate(238.867188 0)"/>
     <use xlink:href="#DejaVuSans-61" transform="translate(302.246094 0)"/>
     <use xlink:href="#DejaVuSans-6c" transform="translate(363.525391 0)"/>
     <use xlink:href="#DejaVuSans-20" transform="translate(391.308594 0)"/>
     <use xlink:href="#DejaVuSans-61" transform="translate(423.095703 0)"/>
     <use xlink:href="#DejaVuSans-78" transform="translate(484.375 0)"/>
     <use xlink:href="#DejaVuSans-65" transform="translate(540.429688 0)"/>
     <use xlink:href="#DejaVuSans-73" transform="translate(601.953125 0)"/>
     <use xlink:href="#DejaVuSans-20" transform="translate(654.052734 0)"/>
     <use xlink:href="#DejaVuSans-28" transform="translate(685.839844 0)"/>
     <use xlink:href="#DejaVuSans-63" transform="translate(724.853516 0)"/>
     <use xlink:href="#DejaVuSans-6f" transform="translate(779.833984 0)"/>
     <use xlink:href="#DejaVuSans-72" transform="translate(841.015625 0)"/>
     <use xlink:href="#DejaVuSans-72" transform="translate(880.378906 0)"/>
     <use xlink:href="#DejaVuSans-65" transform="translate(919.242188 0)"/>
     <use xlink:href="#DejaVuSans-6c" transform="translate(980.765625 0)"/>
     <use xlink:href="#DejaVuSans-61" transform="translate(1008.548828 0)"/>
     <use xlink:href="#DejaVuSans-74" transform="translate(1069.828125 0)"/>
     <use xlink:href="#DejaVuSans-65" transform="translate(1109.037109 0)"/>
     <use xlink:href="#DejaVuSans-64" transform="translate(1170.560547 0)"/>
     <use xlink:href="#DejaVuSans-20" transform="translate(1234.037109 0)"/>
     <use xlink:href="#DejaVuSans-66" transform="translate(1265.824219 0)"/>
     <use xlink:href="#DejaVuSans-65" transform="translate(1301.029297 0)"/>
     <use xlink:href="#DejaVuSans-61" transform="translate(1362.552734 0)"/>
     <use xlink:href="#DejaVuSans-74" transform="translate(1423.832031 0)"/>
     <use xlink:href="#DejaVuSans-75" transform="translate(1463.041016 0)"/>
     <use xlink:href="#DejaVuSans-72" transform="translate(1526.419922 0)"/>
     <use xlink:href="#DejaVuSans-65" transform="translate(1565.283203 0)"/>
     <use xlink:href="#DejaVuSans-73" transform="translate(1626.806641 0)"/>
     <use xlink:href="#DejaVuSans-29" transform="translate(1678.90625 0)"/>
    </g>
   </g>
  </g>
  <g id="axes_2">
   <g id="patch_7">
    <path d="M 345.6 156.441941 
L 624.6 156.441941 
L 624.6 118.153636 
L 345.6 118.153636 
L 345.6 156.441941 
z
" style="fill: none"/>
   </g>
   <g id="PathCollection_2">
    <defs>
     <path id="m9fece297e1" d="M 0 2.54951 
C 0.676138 2.54951 1.324674 2.280877 1.802776 1.802776 
C 2.280877 1.324674 2.54951 0.676138 2.54951 0 
C 2.54951 -0.676138 2.280877 -1.324674 1.802776 -1.802776 
C 1.324674 -2.280877 0.676138 -2.54951 0 -2.54951 
C -0.676138 -2.54951 -1.324674 -2.280877 -1.802776 -1.802776 
C -2.280877 -1.324674 -2.54951 -0.676138 -2.54951 0 
C -2.54951 0.676138 -2.280877 1.324674 -1.802776 1.802776 
C -1.324674 2.280877 -0.676138 2.54951 0 2.54951 
z
" style="stroke: #0d0f12; stroke-width: 0.4"/>
    </defs>
    <g clip-path="url(#p090c75ea4e)">
     <use xlink:href="#m9fece297e1" x="479.007038" y="135.140773" style="fill: #e8643c; stroke: #0d0f12; stroke-width: 0.4"/>
     <use xlink:href="#m9fece297e1" x="564.039735" y="125.232348" style="fill: #e8643c; stroke: #0d0f12; stroke-width: 0.4"/>
     <use xlink:href="#m9fece297e1" x="358.281818" y="139.097462" style="fill: #e8643c; stroke: #0d0f12; stroke-width: 0.4"/>
     <use xlink:href="#m9fece297e1" x="461.238774" y="145.776838" style="fill: #e8643c; stroke: #0d0f12; stroke-width: 0.4"/>
     <use xlink:href="#m9fece297e1" x="475.993951" y="134.544446" style="fill: #e8643c; stroke: #0d0f12; stroke-width: 0.4"/>
     <use xlink:href="#m9fece297e1" x="438.502725" y="133.148928" style="fill: #e8643c; stroke: #0d0f12; stroke-width: 0.4"/>
     <use xlink:href="#m9fece297e1" x="509.614203" y="135.602926" style="fill: #e8643c; stroke: #0d0f12; stroke-width: 0.4"/>
     <use xlink:href="#m9fece297e1" x="454.507192" y="136.759236" style="fill: #e8643c; stroke: #0d0f12; stroke-width: 0.4"/>
     <use xlink:href="#m9fece297e1" x="466.260978" y="133.067813" style="fill: #e8643c; stroke: #0d0f12; stroke-width: 0.4"/>
     <use xlink:href="#m9fece297e1" x="493.06852" y="133.002687" style="fill: #e8643c; stroke: #0d0f12; stroke-width: 0.4"/>
     <use xlink:href="#m9fece297e1" x="429.010169" y="136.974982" style="fill: #e8643c; stroke: #0d0f12; stroke-width: 0.4"/>
     <use xlink:href="#m9fece297e1" x="444.167756" y="140.60747" style="fill: #e8643c; stroke: #0d0f12; stroke-width: 0.4"/>
     <use xlink:href="#m9fece297e1" x="490.474229" y="148.768954" style="fill: #e8643c; stroke: #0d0f12; stroke-width: 0.4"/>
     <use xlink:href="#m9fece297e1" x="432.910454" y="119.894013" style="fill: #e8643c; stroke: #0d0f12; stroke-width: 0.4"/>
     <use xlink:href="#m9fece297e1" x="591.900995" y="136.956239" style="fill: #e8643c; stroke: #0d0f12; stroke-width: 0.4"/>
     <use xlink:href="#m9fece297e1" x="430.837377" y="136.589062" style="fill: #e8643c; stroke: #0d0f12; stroke-width: 0.4"/>
     <use xlink:href="#m9fece297e1" x="402.34695" y="139.438779" style="fill: #e8643c; stroke: #0d0f12; stroke-width: 0.4"/>
     <use xlink:href="#m9fece297e1" x="453.232261" y="140.297882" style="fill: #e8643c; stroke: #0d0f12; stroke-width: 0.4"/>
     <use xlink:href="#m9fece297e1" x="451.617667" y="145.72692" style="fill: #e8643c; stroke: #0d0f12; stroke-width: 0.4"/>
     <use xlink:href="#m9fece297e1" x="532.712292" y="141.43746" style="fill: #e8643c; stroke: #0d0f12; stroke-width: 0.4"/>
     <use xlink:href="#m9fece297e1" x="405.104879" y="150.031897" style="fill: #e8643c; stroke: #0d0f12; stroke-width: 0.4"/>
     <use xlink:href="#m9fece297e1" x="537.218048" y="135.599398" style="fill: #e8643c; stroke: #0d0f12; stroke-width: 0.4"/>
     <use xlink:href="#m9fece297e1" x="465.46592" y="148.06591" style="fill: #e8643c; stroke: #0d0f12; stroke-width: 0.4"/>
     <use xlink:href="#m9fece297e1" x="440.387818" y="148.972074" style="fill: #e8643c; stroke: #0d0f12; stroke-width: 0.4"/>
     <use xlink:href="#m9fece297e1" x="516.963313" y="154.701563" style="fill: #e8643c; stroke: #0d0f12; stroke-width: 0.4"/>
     <use xlink:href="#m9fece297e1" x="470.162324" y="125.694249" style="fill: #e8643c; stroke: #0d0f12; stroke-width: 0.4"/>
     <use xlink:href="#m9fece297e1" x="426.991882" y="146.603608" style="fill: #e8643c; stroke: #0d0f12; stroke-width: 0.4"/>
     <use xlink:href="#m9fece297e1" x="436.474826" y="145.478731" style="fill: #e8643c; stroke: #0d0f12; stroke-width: 0.4"/>
     <use xlink:href="#m9fece297e1" x="360.304955" y="130.97552" style="fill: #e8643c; stroke: #0d0f12; stroke-width: 0.4"/>
     <use xlink:href="#m9fece297e1" x="506.877662" y="135.532991" style="fill: #e8643c; stroke: #0d0f12; stroke-width: 0.4"/>
     <use xlink:href="#m9fece297e1" x="449.192009" y="135.298769" style="fill: #e8643c; stroke: #0d0f12; stroke-width: 0.4"/>
     <use xlink:href="#m9fece297e1" x="481.99383" y="139.430103" style="fill: #e8643c; stroke: #0d0f12; stroke-width: 0.4"/>
     <use xlink:href="#m9fece297e1" x="475.89686" y="129.633166" style="fill: #e8643c; stroke: #0d0f12; stroke-width: 0.4"/>
     <use xlink:href="#m9fece297e1" x="611.918182" y="130.058258" style="fill: #e8643c; stroke: #0d0f12; stroke-width: 0.4"/>
     <use xlink:href="#m9fece297e1" x="417.140228" y="134.703956" style="fill: #e8643c; stroke: #0d0f12; stroke-width: 0.4"/>
     <use xlink:href="#m9fece297e1" x="406.271607" y="132.833526" style="fill: #e8643c; stroke: #0d0f12; stroke-width: 0.4"/>
     <use xlink:href="#m9fece297e1" x="488.304145" y="145.634125" style="fill: #e8643c; stroke: #0d0f12; stroke-width: 0.4"/>
     <use xlink:href="#m9fece297e1" x="512.978021" y="131.517995" style="fill: #e8643c; stroke: #0d0f12; stroke-width: 0.4"/>
     <use xlink:href="#m9fece297e1" x="454.766184" y="154.630904" style="fill: #e8643c; stroke: #0d0f12; stroke-width: 0.4"/>
     <use xlink:href="#m9fece297e1" x="442.962158" y="140.544041" style="fill: #e8643c; stroke: #0d0f12; stroke-width: 0.4"/>
     <use xlink:href="#m9fece297e1" x="504.207724" y="136.045777" style="fill: #e8643c; stroke: #0d0f12; stroke-width: 0.4"/>
     <use xlink:href="#m9fece297e1" x="435.861469" y="134.856195" style="fill: #e8643c; stroke: #0d0f12; stroke-width: 0.4"/>
     <use xlink:href="#m9fece297e1" x="507.884887" y="141.724439" style="fill: #e8643c; stroke: #0d0f12; stroke-width: 0.4"/>
     <use xlink:href="#m9fece297e1" x="504.211944" y="144.460153" style="fill: #e8643c; stroke: #0d0f12; stroke-width: 0.4"/>
     <use xlink:href="#m9fece297e1" x="448.154674" y="129.081078" style="fill: #e8643c; stroke: #0d0f12; stroke-width: 0.4"/>
     <use xlink:href="#m9fece297e1" x="430.071679" y="128.896998" style="fill: #e8643c; stroke: #0d0f12; stroke-width: 0.4"/>
     <use xlink:href="#m9fece297e1" x="490.202021" y="133.252605" style="fill: #e8643c; stroke: #0d0f12; stroke-width: 0.4"/>
     <use xlink:href="#m9fece297e1" x="479.165506" y="140.60937" style="fill: #e8643c; stroke: #0d0f12; stroke-width: 0.4"/>
     <use xlink:href="#m9fece297e1" x="511.425657" y="136.636425" style="fill: #e8643c; stroke: #0d0f12; stroke-width: 0.4"/>
     <use xlink:href="#m9fece297e1" x="525.545345" y="136.907072" style="fill: #e8643c; stroke: #0d0f12; stroke-width: 0.4"/>
     <use xlink:href="#m9fece297e1" x="546.789606" y="144.354633" style="fill: #e8643c; stroke: #0d0f12; stroke-width: 0.4"/>
     <use xlink:href="#m9fece297e1" x="425.792385" y="143.545015" style="fill: #e8643c; stroke: #0d0f12; stroke-width: 0.4"/>
     <use xlink:href="#m9fece297e1" x="367.49235" y="152.570859" style="fill: #e8643c; stroke: #0d0f12; stroke-width: 0.4"/>
     <use xlink:href="#m9fece297e1" x="471.377197" y="135.018471" style="fill: #e8643c; stroke: #0d0f12; stroke-width: 0.4"/>
     <use xlink:href="#m9fece297e1" x="422.674392" y="124.53218" style="fill: #e8643c; stroke: #0d0f12; stroke-width: 0.4"/>
     <use xlink:href="#m9fece297e1" x="458.746623" y="128.993964" style="fill: #e8643c; stroke: #0d0f12; stroke-width: 0.4"/>
     <use xlink:href="#m9fece297e1" x="516.420043" y="125.029106" style="fill: #e8643c; stroke: #0d0f12; stroke-width: 0.4"/>
     <use xlink:href="#m9fece297e1" x="437.184738" y="134.474742" style="fill: #e8643c; stroke: #0d0f12; stroke-width: 0.4"/>
     <use xlink:href="#m9fece297e1" x="461.046586" y="154.409349" style="fill: #e8643c; stroke: #0d0f12; stroke-width: 0.4"/>
     <use xlink:href="#m9fece297e1" x="436.669372" y="136.375136" style="fill: #e8643c; stroke: #0d0f12; stroke-width: 0.4"/>
     <use xlink:href="#m9fece297e1" x="504.500763" y="142.25654" style="fill: #e8643c; stroke: #0d0f12; stroke-width: 0.4"/>
     <use xlink:href="#m9fece297e1" x="455.79167" y="144.767139" style="fill: #e8643c; stroke: #0d0f12; stroke-width: 0.4"/>
     <use xlink:href="#m9fece297e1" x="457.236436" y="131.592578" style="fill: #e8643c; stroke: #0d0f12; stroke-width: 0.4"/>
     <use xlink:href="#m9fece297e1" x="511.105238" y="138.238338" style="fill: #e8643c; stroke: #0d0f12; stroke-width: 0.4"/>
     <use xlink:href="#m9fece297e1" x="547.39969" y="141.272465" style="fill: #e8643c; stroke: #0d0f12; stroke-width: 0.4"/>
     <use xlink:href="#m9fece297e1" x="453.752306" y="144.24118" style="fill: #e8643c; stroke: #0d0f12; stroke-width: 0.4"/>
     <use xlink:href="#m9fece297e1" x="439.065538" y="128.444014" style="fill: #e8643c; stroke: #0d0f12; stroke-width: 0.4"/>
     <use xlink:href="#m9fece297e1" x="461.004153" y="134.102239" style="fill: #e8643c; stroke: #0d0f12; stroke-width: 0.4"/>
     <use xlink:href="#m9fece297e1" x="383.153268" y="130.158037" style="fill: #e8643c; stroke: #0d0f12; stroke-width: 0.4"/>
     <use xlink:href="#m9fece297e1" x="478.252343" y="131.112015" style="fill: #e8643c; stroke: #0d0f12; stroke-width: 0.4"/>
     <use xlink:href="#m9fece297e1" x="499.76416" y="144.129997" style="fill: #e8643c; stroke: #0d0f12; stroke-width: 0.4"/>
     <use xlink:href="#m9fece297e1" x="476.715916" y="143.291613" style="fill: #e8643c; stroke: #0d0f12; stroke-width: 0.4"/>
     <use xlink:href="#m9fece297e1" x="517.946175" y="150.337424" style="fill: #e8643c; stroke: #0d0f12; stroke-width: 0.4"/>
     <use xlink:href="#m9fece297e1" x="456.753222" y="154.40396" style="fill: #e8643c; stroke: #0d0f12; stroke-width: 0.4"/>
     <use xlink:href="#m9fece297e1" x="449.684716" y="147.723278" style="fill: #e8643c; stroke: #0d0f12; stroke-width: 0.4"/>
     <use xlink:href="#m9fece297e1" x="517.936528" y="148.107524" style="fill: #e8643c; stroke: #0d0f12; stroke-width: 0.4"/>
     <use xlink:href="#m9fece297e1" x="524.303291" y="139.980684" style="fill: #e8643c; stroke: #0d0f12; stroke-width: 0.4"/>
     <use xlink:href="#m9fece297e1" x="479.757413" y="137.182302" style="fill: #e8643c; stroke: #0d0f12; stroke-width: 0.4"/>
     <use xlink:href="#m9fece297e1" x="436.64088" y="143.084683" style="fill: #e8643c; stroke: #0d0f12; stroke-width: 0.4"/>
     <use xlink:href="#m9fece297e1" x="445.624093" y="135.989389" style="fill: #e8643c; stroke: #0d0f12; stroke-width: 0.4"/>
     <use xlink:href="#m9fece297e1" x="554.569948" y="139.946536" style="fill: #e8643c; stroke: #0d0f12; stroke-width: 0.4"/>
     <use xlink:href="#m9fece297e1" x="544.833694" y="126.382602" style="fill: #e8643c; stroke: #0d0f12; stroke-width: 0.4"/>
     <use xlink:href="#m9fece297e1" x="446.03251" y="134.57473" style="fill: #e8643c; stroke: #0d0f12; stroke-width: 0.4"/>
     <use xlink:href="#m9fece297e1" x="452.669927" y="146.595693" style="fill: #e8643c; stroke: #0d0f12; stroke-width: 0.4"/>
     <use xlink:href="#m9fece297e1" x="435.471587" y="137.931745" style="fill: #e8643c; stroke: #0d0f12; stroke-width: 0.4"/>
     <use xlink:href="#m9fece297e1" x="504.628498" y="145.652765" style="fill: #e8643c; stroke: #0d0f12; stroke-width: 0.4"/>
     <use xlink:href="#m9fece297e1" x="483.387939" y="132.113346" style="fill: #e8643c; stroke: #0d0f12; stroke-width: 0.4"/>
     <use xlink:href="#m9fece297e1" x="410.463676" y="138.192731" style="fill: #e8643c; stroke: #0d0f12; stroke-width: 0.4"/>
     <use xlink:href="#m9fece297e1" x="552.147047" y="148.567827" style="fill: #e8643c; stroke: #0d0f12; stroke-width: 0.4"/>
     <use xlink:href="#m9fece297e1" x="490.53799" y="152.152611" style="fill: #e8643c; stroke: #0d0f12; stroke-width: 0.4"/>
    </g>
   </g>
   <g id="matplotlib.axis_3">
    <g id="text_4">
     <!-- PC1  (most variance) -->
     <g style="fill: #e8643c" transform="translate(427.484922 168.800222) scale(0.11 -0.11)">
      <defs>
       <path id="DejaVuSans-50" d="M 1259 4147 
L 1259 2394 
L 2053 2394 
Q 2494 2394 2734 2622 
Q 2975 2850 2975 3272 
Q 2975 3691 2734 3919 
Q 2494 4147 2053 4147 
L 1259 4147 
z
M 628 4666 
L 2053 4666 
Q 2838 4666 3239 4311 
Q 3641 3956 3641 3272 
Q 3641 2581 3239 2228 
Q 2838 1875 2053 1875 
L 1259 1875 
L 1259 0 
L 628 0 
L 628 4666 
z
" transform="scale(0.015625)"/>
       <path id="DejaVuSans-43" d="M 4122 4306 
L 4122 3641 
Q 3803 3938 3442 4084 
Q 3081 4231 2675 4231 
Q 1875 4231 1450 3742 
Q 1025 3253 1025 2328 
Q 1025 1406 1450 917 
Q 1875 428 2675 428 
Q 3081 428 3442 575 
Q 3803 722 4122 1019 
L 4122 359 
Q 3791 134 3420 21 
Q 3050 -91 2638 -91 
Q 1578 -91 968 557 
Q 359 1206 359 2328 
Q 359 3453 968 4101 
Q 1578 4750 2638 4750 
Q 3056 4750 3426 4639 
Q 3797 4528 4122 4306 
z
" transform="scale(0.015625)"/>
       <path id="DejaVuSans-31" d="M 794 531 
L 1825 531 
L 1825 4091 
L 703 3866 
L 703 4441 
L 1819 4666 
L 2450 4666 
L 2450 531 
L 3481 531 
L 3481 0 
L 794 0 
L 794 531 
z
" transform="scale(0.015625)"/>
       <path id="DejaVuSans-6d" d="M 3328 2828 
Q 3544 3216 3844 3400 
Q 4144 3584 4550 3584 
Q 5097 3584 5394 3201 
Q 5691 2819 5691 2113 
L 5691 0 
L 5113 0 
L 5113 2094 
Q 5113 2597 4934 2840 
Q 4756 3084 4391 3084 
Q 3944 3084 3684 2787 
Q 3425 2491 3425 1978 
L 3425 0 
L 2847 0 
L 2847 2094 
Q 2847 2600 2669 2842 
Q 2491 3084 2119 3084 
Q 1678 3084 1418 2786 
Q 1159 2488 1159 1978 
L 1159 0 
L 581 0 
L 581 3500 
L 1159 3500 
L 1159 2956 
Q 1356 3278 1631 3431 
Q 1906 3584 2284 3584 
Q 2666 3584 2933 3390 
Q 3200 3197 3328 2828 
z
" transform="scale(0.015625)"/>
       <path id="DejaVuSans-76" d="M 191 3500 
L 800 3500 
L 1894 563 
L 2988 3500 
L 3597 3500 
L 2284 0 
L 1503 0 
L 191 3500 
z
" transform="scale(0.015625)"/>
      </defs>
      <use xlink:href="#DejaVuSans-50"/>
      <use xlink:href="#DejaVuSans-43" transform="translate(60.302734 0)"/>
      <use xlink:href="#DejaVuSans-31" transform="translate(130.126953 0)"/>
      <use xlink:href="#DejaVuSans-20" transform="translate(193.75 0)"/>
      <use xlink:href="#DejaVuSans-20" transform="translate(225.537109 0)"/>
      <use xlink:href="#DejaVuSans-28" transform="translate(257.324219 0)"/>
      <use xlink:href="#DejaVuSans-6d" transform="translate(296.337891 0)"/>
      <use xlink:href="#DejaVuSans-6f" transform="translate(393.75 0)"/>
      <use xlink:href="#DejaVuSans-73" transform="translate(454.931641 0)"/>
      <use xlink:href="#DejaVuSans-74" transform="translate(507.03125 0)"/>
      <use xlink:href="#DejaVuSans-20" transform="translate(546.240234 0)"/>
      <use xlink:href="#DejaVuSans-76" transform="translate(578.027344 0)"/>
      <use xlink:href="#DejaVuSans-61" transform="translate(637.207031 0)"/>
      <use xlink:href="#DejaVuSans-72" transform="translate(698.486328 0)"/>
      <use xlink:href="#DejaVuSans-69" transform="translate(739.599609 0)"/>
      <use xlink:href="#DejaVuSans-61" transform="translate(767.382812 0)"/>
      <use xlink:href="#DejaVuSans-6e" transform="translate(828.662109 0)"/>
      <use xlink:href="#DejaVuSans-63" transform="translate(892.041016 0)"/>
      <use xlink:href="#DejaVuSans-65" transform="translate(947.021484 0)"/>
      <use xlink:href="#DejaVuSans-29" transform="translate(1008.544922 0)"/>
     </g>
    </g>
   </g>
   <g id="matplotlib.axis_4">
    <g id="text_5">
     <!-- PC2 -->
     <g style="fill: #d8a657" transform="translate(339.312344 147.954038) rotate(-90) scale(0.11 -0.11)">
      <defs>
       <path id="DejaVuSans-32" d="M 1228 531 
L 3431 531 
L 3431 0 
L 469 0 
L 469 531 
Q 828 903 1448 1529 
Q 2069 2156 2228 2338 
Q 2531 2678 2651 2914 
Q 2772 3150 2772 3378 
Q 2772 3750 2511 3984 
Q 2250 4219 1831 4219 
Q 1534 4219 1204 4116 
Q 875 4013 500 3803 
L 500 4441 
Q 881 4594 1212 4672 
Q 1544 4750 1819 4750 
Q 2544 4750 2975 4387 
Q 3406 4025 3406 3419 
Q 3406 3131 3298 2873 
Q 3191 2616 2906 2266 
Q 2828 2175 2409 1742 
Q 1991 1309 1228 531 
z
" transform="scale(0.015625)"/>
      </defs>
      <use xlink:href="#DejaVuSans-50"/>
      <use xlink:href="#DejaVuSans-43" transform="translate(60.302734 0)"/>
      <use xlink:href="#DejaVuSans-32" transform="translate(130.126953 0)"/>
     </g>
    </g>
   </g>
   <g id="line2d_1">
    <path d="M 345.6 138.758951 
L 624.6 138.758951 
" clip-path="url(#p090c75ea4e)" style="fill: none; stroke: #d8a657; stroke-opacity: 0.5; stroke-linecap: square"/>
   </g>
   <g id="line2d_2">
    <path d="M 471.323942 156.441941 
L 471.323942 118.153636 
" clip-path="url(#p090c75ea4e)" style="fill: none; stroke: #e8643c; stroke-opacity: 0.5; stroke-linecap: square"/>
   </g>
   <g id="patch_8">
    <path d="M 345.6 156.441941 
L 345.6 118.153636 
" style="fill: none; stroke: #2a2e35; stroke-linejoin: miter; stroke-linecap: square"/>
   </g>
   <g id="patch_9">
    <path d="M 345.6 156.441941 
L 624.6 156.441941 
" style="fill: none; stroke: #2a2e35; stroke-linejoin: miter; stroke-linecap: square"/>
   </g>
   <g id="text_6">
    <!-- After PCA rotation (uncorrelated) -->
    <g style="fill: #ece7df" transform="translate(378.498984 110.153636) scale(0.13 -0.13)">
     <defs>
      <path id="DejaVuSans-41" d="M 2188 4044 
L 1331 1722 
L 3047 1722 
L 2188 4044 
z
M 1831 4666 
L 2547 4666 
L 4325 0 
L 3669 0 
L 3244 1197 
L 1141 1197 
L 716 0 
L 50 0 
L 1831 4666 
z
" transform="scale(0.015625)"/>
     </defs>
     <use xlink:href="#DejaVuSans-41"/>
     <use xlink:href="#DejaVuSans-66" transform="translate(64.783203 0)"/>
     <use xlink:href="#DejaVuSans-74" transform="translate(98.238281 0)"/>
     <use xlink:href="#DejaVuSans-65" transform="translate(137.447266 0)"/>
     <use xlink:href="#DejaVuSans-72" transform="translate(198.970703 0)"/>
     <use xlink:href="#DejaVuSans-20" transform="translate(240.083984 0)"/>
     <use xlink:href="#DejaVuSans-50" transform="translate(271.871094 0)"/>
     <use xlink:href="#DejaVuSans-43" transform="translate(332.173828 0)"/>
     <use xlink:href="#DejaVuSans-41" transform="translate(401.998047 0)"/>
     <use xlink:href="#DejaVuSans-20" transform="translate(470.40625 0)"/>
     <use xlink:href="#DejaVuSans-72" transform="translate(502.193359 0)"/>
     <use xlink:href="#DejaVuSans-6f" transform="translate(541.056641 0)"/>
     <use xlink:href="#DejaVuSans-74" transform="translate(602.238281 0)"/>
     <use xlink:href="#DejaVuSans-61" transform="translate(641.447266 0)"/>
     <use xlink:href="#DejaVuSans-74" transform="translate(702.726562 0)"/>
     <use xlink:href="#DejaVuSans-69" transform="translate(741.935547 0)"/>
     <use xlink:href="#DejaVuSans-6f" transform="translate(769.71875 0)"/>
     <use xlink:href="#DejaVuSans-6e" transform="translate(830.900391 0)"/>
     <use xlink:href="#DejaVuSans-20" transform="translate(894.279297 0)"/>
     <use xlink:href="#DejaVuSans-28" transform="translate(926.066406 0)"/>
     <use xlink:href="#DejaVuSans-75" transform="translate(965.080078 0)"/>
     <use xlink:href="#DejaVuSans-6e" transform="translate(1028.458984 0)"/>
     <use xlink:href="#DejaVuSans-63" transform="translate(1091.837891 0)"/>
     <use xlink:href="#DejaVuSans-6f" transform="translate(1146.818359 0)"/>
     <use xlink:href="#DejaVuSans-72" transform="translate(1208 0)"/>
     <use xlink:href="#DejaVuSans-72" transform="translate(1247.363281 0)"/>
     <use xlink:href="#DejaVuSans-65" transform="translate(1286.226562 0)"/>
     <use xlink:href="#DejaVuSans-6c" transform="translate(1347.75 0)"/>
     <use xlink:href="#DejaVuSans-61" transform="translate(1375.533203 0)"/>
     <use xlink:href="#DejaVuSans-74" transform="translate(1436.8125 0)"/>
     <use xlink:href="#DejaVuSans-65" transform="translate(1476.021484 0)"/>
     <use xlink:href="#DejaVuSans-64" transform="translate(1537.544922 0)"/>
     <use xlink:href="#DejaVuSans-29" transform="translate(1601.021484 0)"/>
    </g>
   </g>
  </g>
 </g>
 <defs>
  <clipPath id="p6b16b7a09f">
   <rect x="10.8" y="28.677969" width="279" height="217.239639"/>
  </clipPath>
  <clipPath id="p090c75ea4e">
   <rect x="345.6" y="118.153636" width="279" height="38.288305"/>
  </clipPath>
 </defs>
</svg>
