<?xml version="1.0" encoding="utf-8" standalone="no"?>
<!DOCTYPE svg PUBLIC "-//W3C//DTD SVG 1.1//EN"
  "http://www.w3.org/Graphics/SVG/1.1/DTD/svg11.dtd">
<svg xmlns:xlink="http://www.w3.org/1999/xlink" width="389.88pt" height="302.22688pt" viewBox="0 0 389.88 302.22688" xmlns="http://www.w3.org/2000/svg" version="1.1">
 <metadata>
  <rdf:RDF xmlns:dc="http://purl.org/dc/elements/1.1/" xmlns:cc="http://creativecommons.org/ns#" xmlns:rdf="http://www.w3.org/1999/02/22-rdf-syntax-ns#">
   <cc:Work>
    <dc:type rdf:resource="http://purl.org/dc/dcmitype/StillImage"/>
    <dc:date>2026-05-21T11:58:15.463640</dc:date>
    <dc:format>image/svg+xml</dc:format>
    <dc:creator>
     <cc:Agent>
      <dc:title>Matplotlib v3.10.8, https://matplotlib.org/</dc:title>
     </cc:Agent>
    </dc:creator>
   </cc:Work>
  </rdf:RDF>
 </metadata>
 <defs>
  <style type="text/css">*{stroke-linejoin: round; stroke-linecap: butt}</style>
 </defs>
 <g id="figure_1">
  <g id="patch_1">
   <path d="M 0 302.22688 
L 389.88 302.22688 
L 389.88 0 
L 0 0 
L 0 302.22688 
z
" style="fill: none"/>
  </g>
  <g id="axes_1">
   <g id="patch_2">
    <path d="M 10.8 291.42688 
L 379.08 291.42688 
L 379.08 36.40288 
L 10.8 36.40288 
L 10.8 291.42688 
z
" style="fill: none"/>
   </g>
   <g id="PathCollection_1">
    <defs>
     <path id="mf321c1c771" d="M 0 2.738613 
C 0.726289 2.738613 1.422928 2.450055 1.936492 1.936492 
C 2.450055 1.422928 2.738613 0.726289 2.738613 0 
C 2.738613 -0.726289 2.450055 -1.422928 1.936492 -1.936492 
C 1.422928 -2.450055 0.726289 -2.738613 0 -2.738613 
C -0.726289 -2.738613 -1.422928 -2.450055 -1.936492 -1.936492 
C -2.450055 -1.422928 -2.738613 -0.726289 -2.738613 0 
C -2.738613 0.726289 -2.450055 1.422928 -1.936492 1.936492 
C -1.422928 2.450055 -0.726289 2.738613 0 2.738613 
z
" style="stroke: #0d0f12; stroke-width: 0.5"/>
    </defs>
    <g clip-path="url(#pd822488cfe)">
     <use xlink:href="#mf321c1c771" x="355.138337" y="227.831404" style="fill: #e8643c; stroke: #0d0f12; stroke-width: 0.5"/>
     <use xlink:href="#mf321c1c771" x="285.643889" y="171.5024" style="fill: #e8643c; stroke: #0d0f12; stroke-width: 0.5"/>
     <use xlink:href="#mf321c1c771" x="248.355618" y="161.523241" style="fill: #e8643c; stroke: #0d0f12; stroke-width: 0.5"/>
     <use xlink:href="#mf321c1c771" x="181.237152" y="161.986116" style="fill: #e8643c; stroke: #0d0f12; stroke-width: 0.5"/>
     <use xlink:href="#mf321c1c771" x="230.688294" y="61.253566" style="fill: #e8643c; stroke: #0d0f12; stroke-width: 0.5"/>
     <use xlink:href="#mf321c1c771" x="277.408453" y="165.406226" style="fill: #e8643c; stroke: #0d0f12; stroke-width: 0.5"/>
     <use xlink:href="#mf321c1c771" x="255.693892" y="174.343841" style="fill: #e8643c; stroke: #0d0f12; stroke-width: 0.5"/>
     <use xlink:href="#mf321c1c771" x="222.554553" y="166.487816" style="fill: #e8643c; stroke: #0d0f12; stroke-width: 0.5"/>
     <use xlink:href="#mf321c1c771" x="288.378006" y="162.173735" style="fill: #e8643c; stroke: #0d0f12; stroke-width: 0.5"/>
     <use xlink:href="#mf321c1c771" x="308.753881" y="161.075673" style="fill: #e8643c; stroke: #0d0f12; stroke-width: 0.5"/>
     <use xlink:href="#mf321c1c771" x="268.778408" y="111.6117" style="fill: #e8643c; stroke: #0d0f12; stroke-width: 0.5"/>
     <use xlink:href="#mf321c1c771" x="291.082728" y="169.730241" style="fill: #e8643c; stroke: #0d0f12; stroke-width: 0.5"/>
     <use xlink:href="#mf321c1c771" x="259.909775" y="140.09776" style="fill: #e8643c; stroke: #0d0f12; stroke-width: 0.5"/>
     <use xlink:href="#mf321c1c771" x="350.606305" y="163.054042" style="fill: #e8643c; stroke: #0d0f12; stroke-width: 0.5"/>
     <use xlink:href="#mf321c1c771" x="257.309559" y="127.012522" style="fill: #e8643c; stroke: #0d0f12; stroke-width: 0.5"/>
     <use xlink:href="#mf321c1c771" x="229.778434" y="163.680265" style="fill: #e8643c; stroke: #0d0f12; stroke-width: 0.5"/>
     <use xlink:href="#mf321c1c771" x="305.532727" y="138.969282" style="fill: #e8643c; stroke: #0d0f12; stroke-width: 0.5"/>
     <use xlink:href="#mf321c1c771" x="271.658578" y="136.426003" style="fill: #e8643c; stroke: #0d0f12; stroke-width: 0.5"/>
     <use xlink:href="#mf321c1c771" x="146.628417" y="126.47433" style="fill: #e8643c; stroke: #0d0f12; stroke-width: 0.5"/>
     <use xlink:href="#mf321c1c771" x="226.644422" y="202.696092" style="fill: #e8643c; stroke: #0d0f12; stroke-width: 0.5"/>
     <use xlink:href="#mf321c1c771" x="279.577842" y="135.56344" style="fill: #e8643c; stroke: #0d0f12; stroke-width: 0.5"/>
     <use xlink:href="#mf321c1c771" x="248.693144" y="185.915116" style="fill: #e8643c; stroke: #0d0f12; stroke-width: 0.5"/>
     <use xlink:href="#mf321c1c771" x="268.858285" y="156.908728" style="fill: #e8643c; stroke: #0d0f12; stroke-width: 0.5"/>
     <use xlink:href="#mf321c1c771" x="327.931825" y="134.235527" style="fill: #e8643c; stroke: #0d0f12; stroke-width: 0.5"/>
     <use xlink:href="#mf321c1c771" x="276.039352" y="123.914841" style="fill: #e8643c; stroke: #0d0f12; stroke-width: 0.5"/>
     <use xlink:href="#mf321c1c771" x="258.938369" y="181.65037" style="fill: #e8643c; stroke: #0d0f12; stroke-width: 0.5"/>
     <use xlink:href="#mf321c1c771" x="292.750813" y="138.907271" style="fill: #e8643c; stroke: #0d0f12; stroke-width: 0.5"/>
     <use xlink:href="#mf321c1c771" x="258.539861" y="177.595744" style="fill: #e8643c; stroke: #0d0f12; stroke-width: 0.5"/>
     <use xlink:href="#mf321c1c771" x="277.552651" y="226.081068" style="fill: #e8643c; stroke: #0d0f12; stroke-width: 0.5"/>
     <use xlink:href="#mf321c1c771" x="297.292924" y="141.490669" style="fill: #e8643c; stroke: #0d0f12; stroke-width: 0.5"/>
     <use xlink:href="#mf321c1c771" x="197.558336" y="153.675567" style="fill: #e8643c; stroke: #0d0f12; stroke-width: 0.5"/>
     <use xlink:href="#mf321c1c771" x="226.453648" y="133.957464" style="fill: #e8643c; stroke: #0d0f12; stroke-width: 0.5"/>
     <use xlink:href="#mf321c1c771" x="180.629869" y="181.327197" style="fill: #e8643c; stroke: #0d0f12; stroke-width: 0.5"/>
     <use xlink:href="#mf321c1c771" x="298.12606" y="122.6463" style="fill: #e8643c; stroke: #0d0f12; stroke-width: 0.5"/>
     <use xlink:href="#mf321c1c771" x="175.326718" y="169.526537" style="fill: #e8643c; stroke: #0d0f12; stroke-width: 0.5"/>
     <use xlink:href="#mf321c1c771" x="281.786423" y="172.676828" style="fill: #e8643c; stroke: #0d0f12; stroke-width: 0.5"/>
     <use xlink:href="#mf321c1c771" x="335.855928" y="189.168679" style="fill: #e8643c; stroke: #0d0f12; stroke-width: 0.5"/>
     <use xlink:href="#mf321c1c771" x="282.921747" y="185.121699" style="fill: #e8643c; stroke: #0d0f12; stroke-width: 0.5"/>
     <use xlink:href="#mf321c1c771" x="327.947446" y="156.027589" style="fill: #e8643c; stroke: #0d0f12; stroke-width: 0.5"/>
     <use xlink:href="#mf321c1c771" x="251.798554" y="204.100569" style="fill: #e8643c; stroke: #0d0f12; stroke-width: 0.5"/>
     <use xlink:href="#mf321c1c771" x="339.76078" y="134.083346" style="fill: #e8643c; stroke: #0d0f12; stroke-width: 0.5"/>
     <use xlink:href="#mf321c1c771" x="300.009592" y="123.171077" style="fill: #e8643c; stroke: #0d0f12; stroke-width: 0.5"/>
     <use xlink:href="#mf321c1c771" x="282.694554" y="173.527772" style="fill: #e8643c; stroke: #0d0f12; stroke-width: 0.5"/>
     <use xlink:href="#mf321c1c771" x="233.4706" y="178.088547" style="fill: #e8643c; stroke: #0d0f12; stroke-width: 0.5"/>
     <use xlink:href="#mf321c1c771" x="326.410493" y="196.795442" style="fill: #e8643c; stroke: #0d0f12; stroke-width: 0.5"/>
     <use xlink:href="#mf321c1c771" x="242.201051" y="164.516848" style="fill: #e8643c; stroke: #0d0f12; stroke-width: 0.5"/>
     <use xlink:href="#mf321c1c771" x="277.358453" y="139.11098" style="fill: #e8643c; stroke: #0d0f12; stroke-width: 0.5"/>
     <use xlink:href="#mf321c1c771" x="214.249134" y="204.435741" style="fill: #e8643c; stroke: #0d0f12; stroke-width: 0.5"/>
     <use xlink:href="#mf321c1c771" x="267.550503" y="121.026535" style="fill: #e8643c; stroke: #0d0f12; stroke-width: 0.5"/>
     <use xlink:href="#mf321c1c771" x="300.159226" y="149.303399" style="fill: #e8643c; stroke: #0d0f12; stroke-width: 0.5"/>
     <use xlink:href="#mf321c1c771" x="254.157898" y="147.10501" style="fill: #e8643c; stroke: #0d0f12; stroke-width: 0.5"/>
     <use xlink:href="#mf321c1c771" x="257.319134" y="132.257714" style="fill: #e8643c; stroke: #0d0f12; stroke-width: 0.5"/>
     <use xlink:href="#mf321c1c771" x="233.718713" y="151.610257" style="fill: #e8643c; stroke: #0d0f12; stroke-width: 0.5"/>
     <use xlink:href="#mf321c1c771" x="262.995569" y="140.017448" style="fill: #e8643c; stroke: #0d0f12; stroke-width: 0.5"/>
     <use xlink:href="#mf321c1c771" x="277.359288" y="83.156299" style="fill: #e8643c; stroke: #0d0f12; stroke-width: 0.5"/>
     <use xlink:href="#mf321c1c771" x="331.916811" y="113.002536" style="fill: #e8643c; stroke: #0d0f12; stroke-width: 0.5"/>
     <use xlink:href="#mf321c1c771" x="180.40134" y="165.057292" style="fill: #e8643c; stroke: #0d0f12; stroke-width: 0.5"/>
     <use xlink:href="#mf321c1c771" x="241.676847" y="140.318881" style="fill: #e8643c; stroke: #0d0f12; stroke-width: 0.5"/>
     <use xlink:href="#mf321c1c771" x="170.144201" y="122.133485" style="fill: #e8643c; stroke: #0d0f12; stroke-width: 0.5"/>
     <use xlink:href="#mf321c1c771" x="313.431234" y="192.30956" style="fill: #e8643c; stroke: #0d0f12; stroke-width: 0.5"/>
    </g>
   </g>
   <g id="PathCollection_2">
    <defs>
     <path id="m8b49b53180" d="M 0 2.738613 
C 0.726289 2.738613 1.422928 2.450055 1.936492 1.936492 
C 2.450055 1.422928 2.738613 0.726289 2.738613 0 
C 2.738613 -0.726289 2.450055 -1.422928 1.936492 -1.936492 
C 1.422928 -2.450055 0.726289 -2.738613 0 -2.738613 
C -0.726289 -2.738613 -1.422928 -2.450055 -1.936492 -1.936492 
C -2.450055 -1.422928 -2.738613 -0.726289 -2.738613 0 
C -2.738613 0.726289 -2.450055 1.422928 -1.936492 1.936492 
C -1.422928 2.450055 -0.726289 2.738613 0 2.738613 
z
" style="stroke: #0d0f12; stroke-width: 0.5"/>
    </defs>
    <g clip-path="url(#pd822488cfe)">
     <use xlink:href="#m8b49b53180" x="105.929785" y="178.11609" style="fill: #5fb6a6; stroke: #0d0f12; stroke-width: 0.5"/>
     <use xlink:href="#m8b49b53180" x="149.68849" y="137.251524" style="fill: #5fb6a6; stroke: #0d0f12; stroke-width: 0.5"/>
     <use xlink:href="#m8b49b53180" x="235.531567" y="161.008894" style="fill: #5fb6a6; stroke: #0d0f12; stroke-width: 0.5"/>
     <use xlink:href="#m8b49b53180" x="180.701377" y="151.010161" style="fill: #5fb6a6; stroke: #0d0f12; stroke-width: 0.5"/>
     <use xlink:href="#m8b49b53180" x="223.200192" y="134.384295" style="fill: #5fb6a6; stroke: #0d0f12; stroke-width: 0.5"/>
     <use xlink:href="#m8b49b53180" x="206.440205" y="185.951084" style="fill: #5fb6a6; stroke: #0d0f12; stroke-width: 0.5"/>
     <use xlink:href="#m8b49b53180" x="139.602045" y="178.473135" style="fill: #5fb6a6; stroke: #0d0f12; stroke-width: 0.5"/>
     <use xlink:href="#m8b49b53180" x="212.281166" y="136.779196" style="fill: #5fb6a6; stroke: #0d0f12; stroke-width: 0.5"/>
     <use xlink:href="#m8b49b53180" x="134.767141" y="168.23521" style="fill: #5fb6a6; stroke: #0d0f12; stroke-width: 0.5"/>
     <use xlink:href="#m8b49b53180" x="168.589347" y="175.291657" style="fill: #5fb6a6; stroke: #0d0f12; stroke-width: 0.5"/>
     <use xlink:href="#m8b49b53180" x="107.983573" y="141.776686" style="fill: #5fb6a6; stroke: #0d0f12; stroke-width: 0.5"/>
     <use xlink:href="#m8b49b53180" x="253.313752" y="162.38852" style="fill: #5fb6a6; stroke: #0d0f12; stroke-width: 0.5"/>
     <use xlink:href="#m8b49b53180" x="124.030436" y="188.59998" style="fill: #5fb6a6; stroke: #0d0f12; stroke-width: 0.5"/>
     <use xlink:href="#m8b49b53180" x="90.664903" y="140.538155" style="fill: #5fb6a6; stroke: #0d0f12; stroke-width: 0.5"/>
     <use xlink:href="#m8b49b53180" x="184.268575" y="155.154105" style="fill: #5fb6a6; stroke: #0d0f12; stroke-width: 0.5"/>
     <use xlink:href="#m8b49b53180" x="162.076405" y="152.129468" style="fill: #5fb6a6; stroke: #0d0f12; stroke-width: 0.5"/>
     <use xlink:href="#m8b49b53180" x="153.772071" y="198.659323" style="fill: #5fb6a6; stroke: #0d0f12; stroke-width: 0.5"/>
     <use xlink:href="#m8b49b53180" x="128.216303" y="152.255202" style="fill: #5fb6a6; stroke: #0d0f12; stroke-width: 0.5"/>
     <use xlink:href="#m8b49b53180" x="114.296667" y="168.914193" style="fill: #5fb6a6; stroke: #0d0f12; stroke-width: 0.5"/>
     <use xlink:href="#m8b49b53180" x="112.757026" y="164.864042" style="fill: #5fb6a6; stroke: #0d0f12; stroke-width: 0.5"/>
     <use xlink:href="#m8b49b53180" x="184.367292" y="166.934941" style="fill: #5fb6a6; stroke: #0d0f12; stroke-width: 0.5"/>
     <use xlink:href="#m8b49b53180" x="141.245175" y="132.356557" style="fill: #5fb6a6; stroke: #0d0f12; stroke-width: 0.5"/>
     <use xlink:href="#m8b49b53180" x="175.445578" y="107.378679" style="fill: #5fb6a6; stroke: #0d0f12; stroke-width: 0.5"/>
     <use xlink:href="#m8b49b53180" x="58.313041" y="131.134125" style="fill: #5fb6a6; stroke: #0d0f12; stroke-width: 0.5"/>
     <use xlink:href="#m8b49b53180" x="127.181444" y="151.597453" style="fill: #5fb6a6; stroke: #0d0f12; stroke-width: 0.5"/>
     <use xlink:href="#m8b49b53180" x="183.70829" y="124.719019" style="fill: #5fb6a6; stroke: #0d0f12; stroke-width: 0.5"/>
     <use xlink:href="#m8b49b53180" x="192.342799" y="151.018977" style="fill: #5fb6a6; stroke: #0d0f12; stroke-width: 0.5"/>
     <use xlink:href="#m8b49b53180" x="216.765415" y="163.432438" style="fill: #5fb6a6; stroke: #0d0f12; stroke-width: 0.5"/>
     <use xlink:href="#m8b49b53180" x="141.797114" y="132.763665" style="fill: #5fb6a6; stroke: #0d0f12; stroke-width: 0.5"/>
     <use xlink:href="#m8b49b53180" x="124.222857" y="94.18264" style="fill: #5fb6a6; stroke: #0d0f12; stroke-width: 0.5"/>
     <use xlink:href="#m8b49b53180" x="191.480162" y="93.766978" style="fill: #5fb6a6; stroke: #0d0f12; stroke-width: 0.5"/>
     <use xlink:href="#m8b49b53180" x="146.695783" y="166.269277" style="fill: #5fb6a6; stroke: #0d0f12; stroke-width: 0.5"/>
     <use xlink:href="#m8b49b53180" x="154.987958" y="134.59912" style="fill: #5fb6a6; stroke: #0d0f12; stroke-width: 0.5"/>
     <use xlink:href="#m8b49b53180" x="122.678852" y="144.654851" style="fill: #5fb6a6; stroke: #0d0f12; stroke-width: 0.5"/>
     <use xlink:href="#m8b49b53180" x="147.114805" y="109.632122" style="fill: #5fb6a6; stroke: #0d0f12; stroke-width: 0.5"/>
     <use xlink:href="#m8b49b53180" x="119.455369" y="125.77004" style="fill: #5fb6a6; stroke: #0d0f12; stroke-width: 0.5"/>
     <use xlink:href="#m8b49b53180" x="120.262086" y="182.63461" style="fill: #5fb6a6; stroke: #0d0f12; stroke-width: 0.5"/>
     <use xlink:href="#m8b49b53180" x="117.417085" y="189.139187" style="fill: #5fb6a6; stroke: #0d0f12; stroke-width: 0.5"/>
     <use xlink:href="#m8b49b53180" x="154.101618" y="126.192274" style="fill: #5fb6a6; stroke: #0d0f12; stroke-width: 0.5"/>
     <use xlink:href="#m8b49b53180" x="154.870917" y="137.723204" style="fill: #5fb6a6; stroke: #0d0f12; stroke-width: 0.5"/>
     <use xlink:href="#m8b49b53180" x="217.729432" y="147.762611" style="fill: #5fb6a6; stroke: #0d0f12; stroke-width: 0.5"/>
     <use xlink:href="#m8b49b53180" x="156.191906" y="163.208222" style="fill: #5fb6a6; stroke: #0d0f12; stroke-width: 0.5"/>
     <use xlink:href="#m8b49b53180" x="78.964248" y="133.886118" style="fill: #5fb6a6; stroke: #0d0f12; stroke-width: 0.5"/>
     <use xlink:href="#m8b49b53180" x="72.617064" y="136.91984" style="fill: #5fb6a6; stroke: #0d0f12; stroke-width: 0.5"/>
     <use xlink:href="#m8b49b53180" x="147.221175" y="123.485601" style="fill: #5fb6a6; stroke: #0d0f12; stroke-width: 0.5"/>
     <use xlink:href="#m8b49b53180" x="144.932275" y="178.74028" style="fill: #5fb6a6; stroke: #0d0f12; stroke-width: 0.5"/>
     <use xlink:href="#m8b49b53180" x="163.161302" y="171.288931" style="fill: #5fb6a6; stroke: #0d0f12; stroke-width: 0.5"/>
     <use xlink:href="#m8b49b53180" x="140.085258" y="154.227629" style="fill: #5fb6a6; stroke: #0d0f12; stroke-width: 0.5"/>
     <use xlink:href="#m8b49b53180" x="142.072562" y="160.763981" style="fill: #5fb6a6; stroke: #0d0f12; stroke-width: 0.5"/>
     <use xlink:href="#m8b49b53180" x="112.186414" y="160.773375" style="fill: #5fb6a6; stroke: #0d0f12; stroke-width: 0.5"/>
     <use xlink:href="#m8b49b53180" x="56.263712" y="159.872242" style="fill: #5fb6a6; stroke: #0d0f12; stroke-width: 0.5"/>
     <use xlink:href="#m8b49b53180" x="96.529761" y="123.670288" style="fill: #5fb6a6; stroke: #0d0f12; stroke-width: 0.5"/>
     <use xlink:href="#m8b49b53180" x="202.216817" y="210.698347" style="fill: #5fb6a6; stroke: #0d0f12; stroke-width: 0.5"/>
     <use xlink:href="#m8b49b53180" x="154.040227" y="158.994728" style="fill: #5fb6a6; stroke: #0d0f12; stroke-width: 0.5"/>
     <use xlink:href="#m8b49b53180" x="103.010647" y="140.349157" style="fill: #5fb6a6; stroke: #0d0f12; stroke-width: 0.5"/>
     <use xlink:href="#m8b49b53180" x="128.063369" y="205.500768" style="fill: #5fb6a6; stroke: #0d0f12; stroke-width: 0.5"/>
     <use xlink:href="#m8b49b53180" x="136.414456" y="159.61498" style="fill: #5fb6a6; stroke: #0d0f12; stroke-width: 0.5"/>
     <use xlink:href="#m8b49b53180" x="152.392141" y="190.302298" style="fill: #5fb6a6; stroke: #0d0f12; stroke-width: 0.5"/>
     <use xlink:href="#m8b49b53180" x="174.19988" y="134.574168" style="fill: #5fb6a6; stroke: #0d0f12; stroke-width: 0.5"/>
     <use xlink:href="#m8b49b53180" x="98.766364" y="174.083411" style="fill: #5fb6a6; stroke: #0d0f12; stroke-width: 0.5"/>
    </g>
   </g>
   <g id="matplotlib.axis_1"/>
   <g id="matplotlib.axis_2"/>
   <g id="line2d_1">
    <path d="M 207.786977 291.42688 
L 207.786977 36.40288 
" clip-path="url(#pd822488cfe)" style="fill: none; stroke-dasharray: 10,6; stroke-dashoffset: 0; stroke: #d8a657; stroke-width: 2"/>
   </g>
   <g id="patch_3">
    <path d="M 10.8 291.42688 
L 10.8 36.40288 
" style="fill: none; stroke: #2a2e35; stroke-linejoin: miter; stroke-linecap: square"/>
   </g>
   <g id="patch_4">
    <path d="M 10.8 291.42688 
L 379.08 291.42688 
" style="fill: none; stroke: #2a2e35; stroke-linejoin: miter; stroke-linecap: square"/>
   </g>
   <g id="text_1">
    <!-- threshold -->
    <g style="fill: #d8a657" transform="translate(209.92814 70.40608) scale(0.1 -0.1)">
     <defs>
      <path id="DejaVuSans-74" d="M 1172 4494 
L 1172 3500 
L 2356 3500 
L 2356 3053 
L 1172 3053 
L 1172 1153 
Q 1172 725 1289 603 
Q 1406 481 1766 481 
L 2356 481 
L 2356 0 
L 1766 0 
Q 1100 0 847 248 
Q 594 497 594 1153 
L 594 3053 
L 172 3053 
L 172 3500 
L 594 3500 
L 594 4494 
L 1172 4494 
z
" transform="scale(0.015625)"/>
      <path id="DejaVuSans-68" d="M 3513 2113 
L 3513 0 
L 2938 0 
L 2938 2094 
Q 2938 2591 2744 2837 
Q 2550 3084 2163 3084 
Q 1697 3084 1428 2787 
Q 1159 2491 1159 1978 
L 1159 0 
L 581 0 
L 581 4863 
L 1159 4863 
L 1159 2956 
Q 1366 3272 1645 3428 
Q 1925 3584 2291 3584 
Q 2894 3584 3203 3211 
Q 3513 2838 3513 2113 
z
" transform="scale(0.015625)"/>
      <path id="DejaVuSans-72" d="M 2631 2963 
Q 2534 3019 2420 3045 
Q 2306 3072 2169 3072 
Q 1681 3072 1420 2755 
Q 1159 2438 1159 1844 
L 1159 0 
L 581 0 
L 581 3500 
L 1159 3500 
L 1159 2956 
Q 1341 3275 1631 3429 
Q 1922 3584 2338 3584 
Q 2397 3584 2469 3576 
Q 2541 3569 2628 3553 
L 2631 2963 
z
" transform="scale(0.015625)"/>
      <path id="DejaVuSans-65" d="M 3597 1894 
L 3597 1613 
L 953 1613 
Q 991 1019 1311 708 
Q 1631 397 2203 397 
Q 2534 397 2845 478 
Q 3156 559 3463 722 
L 3463 178 
Q 3153 47 2828 -22 
Q 2503 -91 2169 -91 
Q 1331 -91 842 396 
Q 353 884 353 1716 
Q 353 2575 817 3079 
Q 1281 3584 2069 3584 
Q 2775 3584 3186 3129 
Q 3597 2675 3597 1894 
z
M 3022 2063 
Q 3016 2534 2758 2815 
Q 2500 3097 2075 3097 
Q 1594 3097 1305 2825 
Q 1016 2553 972 2059 
L 3022 2063 
z
" transform="scale(0.015625)"/>
      <path id="DejaVuSans-73" d="M 2834 3397 
L 2834 2853 
Q 2591 2978 2328 3040 
Q 2066 3103 1784 3103 
Q 1356 3103 1142 2972 
Q 928 2841 928 2578 
Q 928 2378 1081 2264 
Q 1234 2150 1697 2047 
L 1894 2003 
Q 2506 1872 2764 1633 
Q 3022 1394 3022 966 
Q 3022 478 2636 193 
Q 2250 -91 1575 -91 
Q 1294 -91 989 -36 
Q 684 19 347 128 
L 347 722 
Q 666 556 975 473 
Q 1284 391 1588 391 
Q 1994 391 2212 530 
Q 2431 669 2431 922 
Q 2431 1156 2273 1281 
Q 2116 1406 1581 1522 
L 1381 1569 
Q 847 1681 609 1914 
Q 372 2147 372 2553 
Q 372 3047 722 3315 
Q 1072 3584 1716 3584 
Q 2034 3584 2315 3537 
Q 2597 3491 2834 3397 
z
" transform="scale(0.015625)"/>
      <path id="DejaVuSans-6f" d="M 1959 3097 
Q 1497 3097 1228 2736 
Q 959 2375 959 1747 
Q 959 1119 1226 758 
Q 1494 397 1959 397 
Q 2419 397 2687 759 
Q 2956 1122 2956 1747 
Q 2956 2369 2687 2733 
Q 2419 3097 1959 3097 
z
M 1959 3584 
Q 2709 3584 3137 3096 
Q 3566 2609 3566 1747 
Q 3566 888 3137 398 
Q 2709 -91 1959 -91 
Q 1206 -91 779 398 
Q 353 888 353 1747 
Q 353 2609 779 3096 
Q 1206 3584 1959 3584 
z
" transform="scale(0.015625)"/>
      <path id="DejaVuSans-6c" d="M 603 4863 
L 1178 4863 
L 1178 0 
L 603 0 
L 603 4863 
z
" transform="scale(0.015625)"/>
      <path id="DejaVuSans-64" d="M 2906 2969 
L 2906 4863 
L 3481 4863 
L 3481 0 
L 2906 0 
L 2906 525 
Q 2725 213 2448 61 
Q 2172 -91 1784 -91 
Q 1150 -91 751 415 
Q 353 922 353 1747 
Q 353 2572 751 3078 
Q 1150 3584 1784 3584 
Q 2172 3584 2448 3432 
Q 2725 3281 2906 2969 
z
M 947 1747 
Q 947 1113 1208 752 
Q 1469 391 1925 391 
Q 2381 391 2643 752 
Q 2906 1113 2906 1747 
Q 2906 2381 2643 2742 
Q 2381 3103 1925 3103 
Q 1469 3103 1208 2742 
Q 947 2381 947 1747 
z
" transform="scale(0.015625)"/>
     </defs>
     <use xlink:href="#DejaVuSans-74"/>
     <use xlink:href="#DejaVuSans-68" transform="translate(39.208984 0)"/>
     <use xlink:href="#DejaVuSans-72" transform="translate(102.587891 0)"/>
     <use xlink:href="#DejaVuSans-65" transform="translate(141.451172 0)"/>
     <use xlink:href="#DejaVuSans-73" transform="translate(202.974609 0)"/>
     <use xlink:href="#DejaVuSans-68" transform="translate(255.074219 0)"/>
     <use xlink:href="#DejaVuSans-6f" transform="translate(318.453125 0)"/>
     <use xlink:href="#DejaVuSans-6c" transform="translate(379.634766 0)"/>
     <use xlink:href="#DejaVuSans-64" transform="translate(407.417969 0)"/>
    </g>
   </g>
   <g id="text_2">
    <!-- TP -->
    <g style="fill: #e8643c" transform="translate(310.562791 61.90528) scale(0.15 -0.15)">
     <defs>
      <path id="DejaVuSans-Bold-54" d="M 31 4666 
L 4331 4666 
L 4331 3756 
L 2784 3756 
L 2784 0 
L 1581 0 
L 1581 3756 
L 31 3756 
L 31 4666 
z
" transform="scale(0.015625)"/>
      <path id="DejaVuSans-Bold-50" d="M 588 4666 
L 2584 4666 
Q 3475 4666 3951 4270 
Q 4428 3875 4428 3144 
Q 4428 2409 3951 2014 
Q 3475 1619 2584 1619 
L 1791 1619 
L 1791 0 
L 588 0 
L 588 4666 
z
M 1791 3794 
L 1791 2491 
L 2456 2491 
Q 2806 2491 2997 2661 
Q 3188 2831 3188 3144 
Q 3188 3456 2997 3625 
Q 2806 3794 2456 3794 
L 1791 3794 
z
" transform="scale(0.015625)"/>
     </defs>
     <use xlink:href="#DejaVuSans-Bold-54"/>
     <use xlink:href="#DejaVuSans-Bold-50" transform="translate(68.212891 0)"/>
    </g>
   </g>
   <g id="text_3">
    <!-- FN -->
    <g style="fill: #e8643c; opacity: 0.6" transform="translate(53.623256 61.90528) scale(0.15 -0.15)">
     <defs>
      <path id="DejaVuSans-Bold-46" d="M 588 4666 
L 3834 4666 
L 3834 3756 
L 1791 3756 
L 1791 2888 
L 3713 2888 
L 3713 1978 
L 1791 1978 
L 1791 0 
L 588 0 
L 588 4666 
z
" transform="scale(0.015625)"/>
      <path id="DejaVuSans-Bold-4e" d="M 588 4666 
L 1931 4666 
L 3628 1466 
L 3628 4666 
L 4769 4666 
L 4769 0 
L 3425 0 
L 1728 3200 
L 1728 0 
L 588 0 
L 588 4666 
z
" transform="scale(0.015625)"/>
     </defs>
     <use xlink:href="#DejaVuSans-Bold-46"/>
     <use xlink:href="#DejaVuSans-Bold-4e" transform="translate(68.310547 0)"/>
    </g>
   </g>
   <g id="text_4">
    <!-- FP -->
    <g style="fill: #5fb6a6; opacity: 0.6" transform="translate(310.562791 254.59008) scale(0.15 -0.15)">
     <use xlink:href="#DejaVuSans-Bold-46"/>
     <use xlink:href="#DejaVuSans-Bold-50" transform="translate(68.310547 0)"/>
    </g>
   </g>
   <g id="text_5">
    <!-- TN -->
    <g style="fill: #5fb6a6" transform="translate(53.623256 254.59008) scale(0.15 -0.15)">
     <use xlink:href="#DejaVuSans-Bold-54"/>
     <use xlink:href="#DejaVuSans-Bold-4e" transform="translate(68.212891 0)"/>
    </g>
   </g>
   <g id="text_6">
    <!-- predicted +  → -->
    <g style="fill: #9a9389" transform="translate(230.875472 280.09248) scale(0.1 -0.1)">
     <defs>
      <path id="DejaVuSans-70" d="M 1159 525 
L 1159 -1331 
L 581 -1331 
L 581 3500 
L 1159 3500 
L 1159 2969 
Q 1341 3281 1617 3432 
Q 1894 3584 2278 3584 
Q 2916 3584 3314 3078 
Q 3713 2572 3713 1747 
Q 3713 922 3314 415 
Q 2916 -91 2278 -91 
Q 1894 -91 1617 61 
Q 1341 213 1159 525 
z
M 3116 1747 
Q 3116 2381 2855 2742 
Q 2594 3103 2138 3103 
Q 1681 3103 1420 2742 
Q 1159 2381 1159 1747 
Q 1159 1113 1420 752 
Q 1681 391 2138 391 
Q 2594 391 2855 752 
Q 3116 1113 3116 1747 
z
" transform="scale(0.015625)"/>
      <path id="DejaVuSans-69" d="M 603 3500 
L 1178 3500 
L 1178 0 
L 603 0 
L 603 3500 
z
M 603 4863 
L 1178 4863 
L 1178 4134 
L 603 4134 
L 603 4863 
z
" transform="scale(0.015625)"/>
      <path id="DejaVuSans-63" d="M 3122 3366 
L 3122 2828 
Q 2878 2963 2633 3030 
Q 2388 3097 2138 3097 
Q 1578 3097 1268 2742 
Q 959 2388 959 1747 
Q 959 1106 1268 751 
Q 1578 397 2138 397 
Q 2388 397 2633 464 
Q 2878 531 3122 666 
L 3122 134 
Q 2881 22 2623 -34 
Q 2366 -91 2075 -91 
Q 1284 -91 818 406 
Q 353 903 353 1747 
Q 353 2603 823 3093 
Q 1294 3584 2113 3584 
Q 2378 3584 2631 3529 
Q 2884 3475 3122 3366 
z
" transform="scale(0.015625)"/>
      <path id="DejaVuSans-20" transform="scale(0.015625)"/>
      <path id="DejaVuSans-2b" d="M 2944 4013 
L 2944 2272 
L 4684 2272 
L 4684 1741 
L 2944 1741 
L 2944 0 
L 2419 0 
L 2419 1741 
L 678 1741 
L 678 2272 
L 2419 2272 
L 2419 4013 
L 2944 4013 
z
" transform="scale(0.015625)"/>
      <path id="DejaVuSans-2192" d="M 5050 2147 
L 5050 1866 
L 3822 638 
L 3447 1013 
L 4175 1741 
L 366 1741 
L 366 2272 
L 4175 2272 
L 3447 3000 
L 3822 3375 
L 5050 2147 
z
" transform="scale(0.015625)"/>
     </defs>
     <use xlink:href="#DejaVuSans-70"/>
     <use xlink:href="#DejaVuSans-72" transform="translate(63.476562 0)"/>
     <use xlink:href="#DejaVuSans-65" transform="translate(102.339844 0)"/>
     <use xlink:href="#DejaVuSans-64" transform="translate(163.863281 0)"/>
     <use xlink:href="#DejaVuSans-69" transform="translate(227.339844 0)"/>
     <use xlink:href="#DejaVuSans-63" transform="translate(255.123047 0)"/>
     <use xlink:href="#DejaVuSans-74" transform="translate(310.103516 0)"/>
     <use xlink:href="#DejaVuSans-65" transform="translate(349.3125 0)"/>
     <use xlink:href="#DejaVuSans-64" transform="translate(410.835938 0)"/>
     <use xlink:href="#DejaVuSans-20" transform="translate(474.3125 0)"/>
     <use xlink:href="#DejaVuSans-2b" transform="translate(506.099609 0)"/>
     <use xlink:href="#DejaVuSans-20" transform="translate(589.888672 0)"/>
     <use xlink:href="#DejaVuSans-20" transform="translate(621.675781 0)"/>
     <use xlink:href="#DejaVuSans-2192" transform="translate(653.462891 0)"/>
    </g>
   </g>
   <g id="text_7">
    <!-- ←  predicted − -->
    <g style="fill: #9a9389" transform="translate(110.970356 280.09248) scale(0.1 -0.1)">
     <defs>
      <path id="DejaVuSans-2190" d="M 313 1866 
L 313 2147 
L 1541 3375 
L 1916 3000 
L 1188 2272 
L 4997 2272 
L 4997 1741 
L 1188 1741 
L 1916 1013 
L 1541 638 
L 313 1866 
z
" transform="scale(0.015625)"/>
      <path id="DejaVuSans-2212" d="M 678 2272 
L 4684 2272 
L 4684 1741 
L 678 1741 
L 678 2272 
z
" transform="scale(0.015625)"/>
     </defs>
     <use xlink:href="#DejaVuSans-2190"/>
     <use xlink:href="#DejaVuSans-20" transform="translate(83.789062 0)"/>
     <use xlink:href="#DejaVuSans-20" transform="translate(115.576172 0)"/>
     <use xlink:href="#DejaVuSans-70" transform="translate(147.363281 0)"/>
     <use xlink:href="#DejaVuSans-72" transform="translate(210.839844 0)"/>
     <use xlink:href="#DejaVuSans-65" transform="translate(249.703125 0)"/>
     <use xlink:href="#DejaVuSans-64" transform="translate(311.226562 0)"/>
     <use xlink:href="#DejaVuSans-69" transform="translate(374.703125 0)"/>
     <use xlink:href="#DejaVuSans-63" transform="translate(402.486328 0)"/>
     <use xlink:href="#DejaVuSans-74" transform="translate(457.466797 0)"/>
     <use xlink:href="#DejaVuSans-65" transform="translate(496.675781 0)"/>
     <use xlink:href="#DejaVuSans-64" transform="translate(558.199219 0)"/>
     <use xlink:href="#DejaVuSans-20" transform="translate(621.675781 0)"/>
     <use xlink:href="#DejaVuSans-2212" transform="translate(653.462891 0)"/>
    </g>
   </g>
   <g id="legend_1">
    <g id="PathCollection_3">
     <g>
      <use xlink:href="#mf321c1c771" x="82.793125" y="19.773438" style="fill: #e8643c; stroke: #0d0f12; stroke-width: 0.5"/>
     </g>
    </g>
    <g id="text_8">
     <!-- actually positive -->
     <g style="fill: #ece7df" transform="translate(100.793125 22.398438) scale(0.1 -0.1)">
      <defs>
       <path id="DejaVuSans-61" d="M 2194 1759 
Q 1497 1759 1228 1600 
Q 959 1441 959 1056 
Q 959 750 1161 570 
Q 1363 391 1709 391 
Q 2188 391 2477 730 
Q 2766 1069 2766 1631 
L 2766 1759 
L 2194 1759 
z
M 3341 1997 
L 3341 0 
L 2766 0 
L 2766 531 
Q 2569 213 2275 61 
Q 1981 -91 1556 -91 
Q 1019 -91 701 211 
Q 384 513 384 1019 
Q 384 1609 779 1909 
Q 1175 2209 1959 2209 
L 2766 2209 
L 2766 2266 
Q 2766 2663 2505 2880 
Q 2244 3097 1772 3097 
Q 1472 3097 1187 3025 
Q 903 2953 641 2809 
L 641 3341 
Q 956 3463 1253 3523 
Q 1550 3584 1831 3584 
Q 2591 3584 2966 3190 
Q 3341 2797 3341 1997 
z
" transform="scale(0.015625)"/>
       <path id="DejaVuSans-75" d="M 544 1381 
L 544 3500 
L 1119 3500 
L 1119 1403 
Q 1119 906 1312 657 
Q 1506 409 1894 409 
Q 2359 409 2629 706 
Q 2900 1003 2900 1516 
L 2900 3500 
L 3475 3500 
L 3475 0 
L 2900 0 
L 2900 538 
Q 2691 219 2414 64 
Q 2138 -91 1772 -91 
Q 1169 -91 856 284 
Q 544 659 544 1381 
z
M 1991 3584 
L 1991 3584 
z
" transform="scale(0.015625)"/>
       <path id="DejaVuSans-79" d="M 2059 -325 
Q 1816 -950 1584 -1140 
Q 1353 -1331 966 -1331 
L 506 -1331 
L 506 -850 
L 844 -850 
Q 1081 -850 1212 -737 
Q 1344 -625 1503 -206 
L 1606 56 
L 191 3500 
L 800 3500 
L 1894 763 
L 2988 3500 
L 3597 3500 
L 2059 -325 
z
" transform="scale(0.015625)"/>
       <path id="DejaVuSans-76" d="M 191 3500 
L 800 3500 
L 1894 563 
L 2988 3500 
L 3597 3500 
L 2284 0 
L 1503 0 
L 191 3500 
z
" transform="scale(0.015625)"/>
      </defs>
      <use xlink:href="#DejaVuSans-61"/>
      <use xlink:href="#DejaVuSans-63" transform="translate(61.279297 0)"/>
      <use xlink:href="#DejaVuSans-74" transform="translate(116.259766 0)"/>
      <use xlink:href="#DejaVuSans-75" transform="translate(155.46875 0)"/>
      <use xlink:href="#DejaVuSans-61" transform="translate(218.847656 0)"/>
      <use xlink:href="#DejaVuSans-6c" transform="translate(280.126953 0)"/>
      <use xlink:href="#DejaVuSans-6c" transform="translate(307.910156 0)"/>
      <use xlink:href="#DejaVuSans-79" transform="translate(335.693359 0)"/>
      <use xlink:href="#DejaVuSans-20" transform="translate(394.873047 0)"/>
      <use xlink:href="#DejaVuSans-70" transform="translate(426.660156 0)"/>
      <use xlink:href="#DejaVuSans-6f" transform="translate(490.136719 0)"/>
      <use xlink:href="#DejaVuSans-73" transform="translate(551.318359 0)"/>
      <use xlink:href="#DejaVuSans-69" transform="translate(603.417969 0)"/>
      <use xlink:href="#DejaVuSans-74" transform="translate(631.201172 0)"/>
      <use xlink:href="#DejaVuSans-69" transform="translate(670.410156 0)"/>
      <use xlink:href="#DejaVuSans-76" transform="translate(698.193359 0)"/>
      <use xlink:href="#DejaVuSans-65" transform="translate(757.373047 0)"/>
     </g>
    </g>
    <g id="PathCollection_4">
     <g>
      <use xlink:href="#m8b49b53180" x="212.68375" y="19.773438" style="fill: #5fb6a6; stroke: #0d0f12; stroke-width: 0.5"/>
     </g>
    </g>
    <g id="text_9">
     <!-- actually negative -->
     <g style="fill: #ece7df" transform="translate(230.68375 22.398438) scale(0.1 -0.1)">
      <defs>
       <path id="DejaVuSans-6e" d="M 3513 2113 
L 3513 0 
L 2938 0 
L 2938 2094 
Q 2938 2591 2744 2837 
Q 2550 3084 2163 3084 
Q 1697 3084 1428 2787 
Q 1159 2491 1159 1978 
L 1159 0 
L 581 0 
L 581 3500 
L 1159 3500 
L 1159 2956 
Q 1366 3272 1645 3428 
Q 1925 3584 2291 3584 
Q 2894 3584 3203 3211 
Q 3513 2838 3513 2113 
z
" transform="scale(0.015625)"/>
       <path id="DejaVuSans-67" d="M 2906 1791 
Q 2906 2416 2648 2759 
Q 2391 3103 1925 3103 
Q 1463 3103 1205 2759 
Q 947 2416 947 1791 
Q 947 1169 1205 825 
Q 1463 481 1925 481 
Q 2391 481 2648 825 
Q 2906 1169 2906 1791 
z
M 3481 434 
Q 3481 -459 3084 -895 
Q 2688 -1331 1869 -1331 
Q 1566 -1331 1297 -1286 
Q 1028 -1241 775 -1147 
L 775 -588 
Q 1028 -725 1275 -790 
Q 1522 -856 1778 -856 
Q 2344 -856 2625 -561 
Q 2906 -266 2906 331 
L 2906 616 
Q 2728 306 2450 153 
Q 2172 0 1784 0 
Q 1141 0 747 490 
Q 353 981 353 1791 
Q 353 2603 747 3093 
Q 1141 3584 1784 3584 
Q 2172 3584 2450 3431 
Q 2728 3278 2906 2969 
L 2906 3500 
L 3481 3500 
L 3481 434 
z
" transform="scale(0.015625)"/>
      </defs>
      <use xlink:href="#DejaVuSans-61"/>
      <use xlink:href="#DejaVuSans-63" transform="translate(61.279297 0)"/>
      <use xlink:href="#DejaVuSans-74" transform="translate(116.259766 0)"/>
      <use xlink:href="#DejaVuSans-75" transform="translate(155.46875 0)"/>
      <use xlink:href="#DejaVuSans-61" transform="translate(218.847656 0)"/>
      <use xlink:href="#DejaVuSans-6c" transform="translate(280.126953 0)"/>
      <use xlink:href="#DejaVuSans-6c" transform="translate(307.910156 0)"/>
      <use xlink:href="#DejaVuSans-79" transform="translate(335.693359 0)"/>
      <use xlink:href="#DejaVuSans-20" transform="translate(394.873047 0)"/>
      <use xlink:href="#DejaVuSans-6e" transform="translate(426.660156 0)"/>
      <use xlink:href="#DejaVuSans-65" transform="translate(490.039062 0)"/>
      <use xlink:href="#DejaVuSans-67" transform="translate(551.5625 0)"/>
      <use xlink:href="#DejaVuSans-61" transform="translate(615.039062 0)"/>
      <use xlink:href="#DejaVuSans-74" transform="translate(676.318359 0)"/>
      <use xlink:href="#DejaVuSans-69" transform="translate(715.527344 0)"/>
      <use xlink:href="#DejaVuSans-76" transform="translate(743.310547 0)"/>
      <use xlink:href="#DejaVuSans-65" transform="translate(802.490234 0)"/>
     </g>
    </g>
   </g>
  </g>
 </g>
 <defs>
  <clipPath id="pd822488cfe">
   <rect x="10.8" y="36.40288" width="368.28" height="255.024"/>
  </clipPath>
 </defs>
</svg>
