<?xml version="1.0" encoding="utf-8" standalone="no"?>
<!DOCTYPE svg PUBLIC "-//W3C//DTD SVG 1.1//EN"
  "http://www.w3.org/Graphics/SVG/1.1/DTD/svg11.dtd">
<svg xmlns:xlink="http://www.w3.org/1999/xlink" width="389.88pt" height="298.8pt" viewBox="0 0 389.88 298.8" xmlns="http://www.w3.org/2000/svg" version="1.1">
 <metadata>
  <rdf:RDF xmlns:dc="http://purl.org/dc/elements/1.1/" xmlns:cc="http://creativecommons.org/ns#" xmlns:rdf="http://www.w3.org/1999/02/22-rdf-syntax-ns#">
   <cc:Work>
    <dc:type rdf:resource="http://purl.org/dc/dcmitype/StillImage"/>
    <dc:date>2026-05-21T11:58:15.526721</dc:date>
    <dc:format>image/svg+xml</dc:format>
    <dc:creator>
     <cc:Agent>
      <dc:title>Matplotlib v3.10.8, https://matplotlib.org/</dc:title>
     </cc:Agent>
    </dc:creator>
   </cc:Work>
  </rdf:RDF>
 </metadata>
 <defs>
  <style type="text/css">*{stroke-linejoin: round; stroke-linecap: butt}</style>
 </defs>
 <g id="figure_1">
  <g id="patch_1">
   <path d="M 0 298.8 
L 389.88 298.8 
L 389.88 0 
L 0 0 
L 0 298.8 
z
" style="fill: none"/>
  </g>
  <g id="axes_1">
   <g id="patch_2">
    <path d="M 10.8 288 
L 379.08 288 
L 379.08 10.8 
L 10.8 10.8 
L 10.8 288 
z
" style="fill: none"/>
   </g>
   <g id="matplotlib.axis_1"/>
   <g id="matplotlib.axis_2"/>
   <g id="QuadContourSet_1">
    <path d="M 10.8 85.12027 
L 379.08 271.275895 
L 379.08 271.275895 
" clip-path="url(#p5086ccc43e)" style="fill: none; stroke-dasharray: 5.2,3.9; stroke-dashoffset: 0; stroke: #9a9389; stroke-width: 1.3"/>
    <path d="M 10.8 51.288998 
L 379.08 237.444622 
L 379.08 237.444622 
" clip-path="url(#p5086ccc43e)" style="fill: none; stroke: #ece7df; stroke-width: 2.4"/>
    <path d="M 10.8 17.457726 
L 379.08 203.61335 
L 379.08 203.61335 
" clip-path="url(#p5086ccc43e)" style="fill: none; stroke-dasharray: 5.2,3.9; stroke-dashoffset: 0; stroke: #9a9389; stroke-width: 1.3"/>
   </g>
   <g id="patch_3">
    <path d="M 10.8 288 
L 10.8 10.8 
" style="fill: none; stroke: #2a2e35; stroke-linejoin: miter; stroke-linecap: square"/>
   </g>
   <g id="patch_4">
    <path d="M 10.8 288 
L 379.08 288 
" style="fill: none; stroke: #2a2e35; stroke-linejoin: miter; stroke-linecap: square"/>
   </g>
   <g id="PathCollection_1">
    <defs>
     <path id="C0_0_8b91072cef" d="M 0 3 
C 0.795609 3 1.55874 2.683901 2.12132 2.12132 
C 2.683901 1.55874 3 0.795609 3 -0 
C 3 -0.795609 2.683901 -1.55874 2.12132 -2.12132 
C 1.55874 -2.683901 0.795609 -3 0 -3 
C -0.795609 -3 -1.55874 -2.683901 -2.12132 -2.12132 
C -2.683901 -1.55874 -3 -0.795609 -3 0 
C -3 0.795609 -2.683901 1.55874 -2.12132 2.12132 
C -1.55874 2.683901 -0.795609 3 0 3 
z
"/>
    </defs>
    <g clip-path="url(#p5086ccc43e)">
     <use xlink:href="#C0_0_8b91072cef" x="123.34069" y="194.546704" style="fill: #e8643c; stroke: #0d0f12; stroke-width: 0.5"/>
    </g>
    <g clip-path="url(#p5086ccc43e)">
     <use xlink:href="#C0_0_8b91072cef" x="158.983408" y="249.334877" style="fill: #e8643c; stroke: #0d0f12; stroke-width: 0.5"/>
    </g>
    <g clip-path="url(#p5086ccc43e)">
     <use xlink:href="#C0_0_8b91072cef" x="108.965149" y="259.11694" style="fill: #e8643c; stroke: #0d0f12; stroke-width: 0.5"/>
    </g>
    <g clip-path="url(#p5086ccc43e)">
     <use xlink:href="#C0_0_8b91072cef" x="231.047669" y="89.333249" style="fill: #5fb6a6; stroke: #0d0f12; stroke-width: 0.5"/>
    </g>
    <g clip-path="url(#p5086ccc43e)">
     <use xlink:href="#C0_0_8b91072cef" x="269.433668" y="107.335298" style="fill: #5fb6a6; stroke: #0d0f12; stroke-width: 0.5"/>
    </g>
    <g clip-path="url(#p5086ccc43e)">
     <use xlink:href="#C0_0_8b91072cef" x="280.468948" y="118.96636" style="fill: #5fb6a6; stroke: #0d0f12; stroke-width: 0.5"/>
    </g>
    <g clip-path="url(#p5086ccc43e)">
     <use xlink:href="#C0_0_8b91072cef" x="197.523571" y="99.164869" style="fill: #5fb6a6; stroke: #0d0f12; stroke-width: 0.5"/>
    </g>
    <g clip-path="url(#p5086ccc43e)">
     <use xlink:href="#C0_0_8b91072cef" x="133.811989" y="212.359302" style="fill: #e8643c; stroke: #0d0f12; stroke-width: 0.5"/>
    </g>
    <g clip-path="url(#p5086ccc43e)">
     <use xlink:href="#C0_0_8b91072cef" x="288.160453" y="109.029275" style="fill: #5fb6a6; stroke: #0d0f12; stroke-width: 0.5"/>
    </g>
    <g clip-path="url(#p5086ccc43e)">
     <use xlink:href="#C0_0_8b91072cef" x="142.47154" y="177.268155" style="fill: #e8643c; stroke: #0d0f12; stroke-width: 0.5"/>
    </g>
    <g clip-path="url(#p5086ccc43e)">
     <use xlink:href="#C0_0_8b91072cef" x="263.247527" y="88.465238" style="fill: #5fb6a6; stroke: #0d0f12; stroke-width: 0.5"/>
    </g>
    <g clip-path="url(#p5086ccc43e)">
     <use xlink:href="#C0_0_8b91072cef" x="231.572969" y="129.044637" style="fill: #5fb6a6; stroke: #0d0f12; stroke-width: 0.5"/>
    </g>
    <g clip-path="url(#p5086ccc43e)">
     <use xlink:href="#C0_0_8b91072cef" x="277.890367" y="115.288908" style="fill: #5fb6a6; stroke: #0d0f12; stroke-width: 0.5"/>
    </g>
    <g clip-path="url(#p5086ccc43e)">
     <use xlink:href="#C0_0_8b91072cef" x="266.445326" y="104.212389" style="fill: #5fb6a6; stroke: #0d0f12; stroke-width: 0.5"/>
    </g>
    <g clip-path="url(#p5086ccc43e)">
     <use xlink:href="#C0_0_8b91072cef" x="332.868566" y="72.4517" style="fill: #5fb6a6; stroke: #0d0f12; stroke-width: 0.5"/>
    </g>
    <g clip-path="url(#p5086ccc43e)">
     <use xlink:href="#C0_0_8b91072cef" x="281.099732" y="122.126427" style="fill: #5fb6a6; stroke: #0d0f12; stroke-width: 0.5"/>
    </g>
    <g clip-path="url(#p5086ccc43e)">
     <use xlink:href="#C0_0_8b91072cef" x="172.941457" y="239.12017" style="fill: #e8643c; stroke: #0d0f12; stroke-width: 0.5"/>
    </g>
    <g clip-path="url(#p5086ccc43e)">
     <use xlink:href="#C0_0_8b91072cef" x="113.257353" y="204.170778" style="fill: #e8643c; stroke: #0d0f12; stroke-width: 0.5"/>
    </g>
    <g clip-path="url(#p5086ccc43e)">
     <use xlink:href="#C0_0_8b91072cef" x="187.855862" y="225.424726" style="fill: #e8643c; stroke: #0d0f12; stroke-width: 0.5"/>
    </g>
    <g clip-path="url(#p5086ccc43e)">
     <use xlink:href="#C0_0_8b91072cef" x="117.851595" y="172.013745" style="fill: #e8643c; stroke: #0d0f12; stroke-width: 0.5"/>
    </g>
    <g clip-path="url(#p5086ccc43e)">
     <use xlink:href="#C0_0_8b91072cef" x="169.701449" y="260.149523" style="fill: #e8643c; stroke: #0d0f12; stroke-width: 0.5"/>
    </g>
    <g clip-path="url(#p5086ccc43e)">
     <use xlink:href="#C0_0_8b91072cef" x="137.47597" y="240.452228" style="fill: #e8643c; stroke: #0d0f12; stroke-width: 0.5"/>
    </g>
    <g clip-path="url(#p5086ccc43e)">
     <use xlink:href="#C0_0_8b91072cef" x="133.69456" y="207.51961" style="fill: #e8643c; stroke: #0d0f12; stroke-width: 0.5"/>
    </g>
    <g clip-path="url(#p5086ccc43e)">
     <use xlink:href="#C0_0_8b91072cef" x="132.454067" y="216.624525" style="fill: #e8643c; stroke: #0d0f12; stroke-width: 0.5"/>
    </g>
    <g clip-path="url(#p5086ccc43e)">
     <use xlink:href="#C0_0_8b91072cef" x="142.331106" y="153.602343" style="fill: #e8643c; stroke: #0d0f12; stroke-width: 0.5"/>
    </g>
    <g clip-path="url(#p5086ccc43e)">
     <use xlink:href="#C0_0_8b91072cef" x="271.515138" y="127.84701" style="fill: #5fb6a6; stroke: #0d0f12; stroke-width: 0.5"/>
    </g>
    <g clip-path="url(#p5086ccc43e)">
     <use xlink:href="#C0_0_8b91072cef" x="270.772074" y="146.973722" style="fill: #5fb6a6; stroke: #0d0f12; stroke-width: 0.5"/>
    </g>
    <g clip-path="url(#p5086ccc43e)">
     <use xlink:href="#C0_0_8b91072cef" x="54.365476" y="238.380515" style="fill: #e8643c; stroke: #0d0f12; stroke-width: 0.5"/>
    </g>
    <g clip-path="url(#p5086ccc43e)">
     <use xlink:href="#C0_0_8b91072cef" x="283.89478" y="113.640719" style="fill: #5fb6a6; stroke: #0d0f12; stroke-width: 0.5"/>
    </g>
    <g clip-path="url(#p5086ccc43e)">
     <use xlink:href="#C0_0_8b91072cef" x="185.204743" y="188.829519" style="fill: #e8643c; stroke: #0d0f12; stroke-width: 0.5"/>
    </g>
    <g clip-path="url(#p5086ccc43e)">
     <use xlink:href="#C0_0_8b91072cef" x="183.017819" y="230.727485" style="fill: #e8643c; stroke: #0d0f12; stroke-width: 0.5"/>
    </g>
    <g clip-path="url(#p5086ccc43e)">
     <use xlink:href="#C0_0_8b91072cef" x="269.493118" y="116.535441" style="fill: #5fb6a6; stroke: #0d0f12; stroke-width: 0.5"/>
    </g>
    <g clip-path="url(#p5086ccc43e)">
     <use xlink:href="#C0_0_8b91072cef" x="348.260783" y="104.71919" style="fill: #5fb6a6; stroke: #0d0f12; stroke-width: 0.5"/>
    </g>
    <g clip-path="url(#p5086ccc43e)">
     <use xlink:href="#C0_0_8b91072cef" x="248.437354" y="91.079965" style="fill: #5fb6a6; stroke: #0d0f12; stroke-width: 0.5"/>
    </g>
    <g clip-path="url(#p5086ccc43e)">
     <use xlink:href="#C0_0_8b91072cef" x="189.993775" y="70.616631" style="fill: #5fb6a6; stroke: #0d0f12; stroke-width: 0.5"/>
    </g>
    <g clip-path="url(#p5086ccc43e)">
     <use xlink:href="#C0_0_8b91072cef" x="271.608599" y="59.625515" style="fill: #5fb6a6; stroke: #0d0f12; stroke-width: 0.5"/>
    </g>
    <g clip-path="url(#p5086ccc43e)">
     <use xlink:href="#C0_0_8b91072cef" x="281.200581" y="127.181265" style="fill: #5fb6a6; stroke: #0d0f12; stroke-width: 0.5"/>
    </g>
    <g clip-path="url(#p5086ccc43e)">
     <use xlink:href="#C0_0_8b91072cef" x="248.19073" y="51.031831" style="fill: #5fb6a6; stroke: #0d0f12; stroke-width: 0.5"/>
    </g>
    <g clip-path="url(#p5086ccc43e)">
     <use xlink:href="#C0_0_8b91072cef" x="116.447269" y="198.961193" style="fill: #e8643c; stroke: #0d0f12; stroke-width: 0.5"/>
    </g>
    <g clip-path="url(#p5086ccc43e)">
     <use xlink:href="#C0_0_8b91072cef" x="223.014052" y="192.380881" style="fill: #e8643c; stroke: #0d0f12; stroke-width: 0.5"/>
    </g>
    <g clip-path="url(#p5086ccc43e)">
     <use xlink:href="#C0_0_8b91072cef" x="264.666495" y="41.42646" style="fill: #5fb6a6; stroke: #0d0f12; stroke-width: 0.5"/>
    </g>
    <g clip-path="url(#p5086ccc43e)">
     <use xlink:href="#C0_0_8b91072cef" x="299.073069" y="80.53096" style="fill: #5fb6a6; stroke: #0d0f12; stroke-width: 0.5"/>
    </g>
    <g clip-path="url(#p5086ccc43e)">
     <use xlink:href="#C0_0_8b91072cef" x="189.786481" y="89.115576" style="fill: #5fb6a6; stroke: #0d0f12; stroke-width: 0.5"/>
    </g>
    <g clip-path="url(#p5086ccc43e)">
     <use xlink:href="#C0_0_8b91072cef" x="178.844501" y="228.298714" style="fill: #e8643c; stroke: #0d0f12; stroke-width: 0.5"/>
    </g>
    <g clip-path="url(#p5086ccc43e)">
     <use xlink:href="#C0_0_8b91072cef" x="113.046898" y="136.819085" style="fill: #e8643c; stroke: #0d0f12; stroke-width: 0.5"/>
    </g>
    <g clip-path="url(#p5086ccc43e)">
     <use xlink:href="#C0_0_8b91072cef" x="41.619217" y="182.406409" style="fill: #e8643c; stroke: #0d0f12; stroke-width: 0.5"/>
    </g>
    <g clip-path="url(#p5086ccc43e)">
     <use xlink:href="#C0_0_8b91072cef" x="109.856238" y="244.757698" style="fill: #e8643c; stroke: #0d0f12; stroke-width: 0.5"/>
    </g>
    <g clip-path="url(#p5086ccc43e)">
     <use xlink:href="#C0_0_8b91072cef" x="259.605873" y="71.405766" style="fill: #5fb6a6; stroke: #0d0f12; stroke-width: 0.5"/>
    </g>
    <g clip-path="url(#p5086ccc43e)">
     <use xlink:href="#C0_0_8b91072cef" x="317.42556" y="38.650477" style="fill: #5fb6a6; stroke: #0d0f12; stroke-width: 0.5"/>
    </g>
    <g clip-path="url(#p5086ccc43e)">
     <use xlink:href="#C0_0_8b91072cef" x="148.481461" y="181.555319" style="fill: #e8643c; stroke: #0d0f12; stroke-width: 0.5"/>
    </g>
    <g clip-path="url(#p5086ccc43e)">
     <use xlink:href="#C0_0_8b91072cef" x="102.105715" y="181.049763" style="fill: #e8643c; stroke: #0d0f12; stroke-width: 0.5"/>
    </g>
    <g clip-path="url(#p5086ccc43e)">
     <use xlink:href="#C0_0_8b91072cef" x="152.234222" y="185.692375" style="fill: #e8643c; stroke: #0d0f12; stroke-width: 0.5"/>
    </g>
    <g clip-path="url(#p5086ccc43e)">
     <use xlink:href="#C0_0_8b91072cef" x="160.1386" y="181.450453" style="fill: #e8643c; stroke: #0d0f12; stroke-width: 0.5"/>
    </g>
    <g clip-path="url(#p5086ccc43e)">
     <use xlink:href="#C0_0_8b91072cef" x="246.20025" y="69.278707" style="fill: #5fb6a6; stroke: #0d0f12; stroke-width: 0.5"/>
    </g>
    <g clip-path="url(#p5086ccc43e)">
     <use xlink:href="#C0_0_8b91072cef" x="263.686319" y="141.093987" style="fill: #5fb6a6; stroke: #0d0f12; stroke-width: 0.5"/>
    </g>
    <g clip-path="url(#p5086ccc43e)">
     <use xlink:href="#C0_0_8b91072cef" x="125.264141" y="255.49007" style="fill: #e8643c; stroke: #0d0f12; stroke-width: 0.5"/>
    </g>
    <g clip-path="url(#p5086ccc43e)">
     <use xlink:href="#C0_0_8b91072cef" x="81.679594" y="226.505299" style="fill: #e8643c; stroke: #0d0f12; stroke-width: 0.5"/>
    </g>
    <g clip-path="url(#p5086ccc43e)">
     <use xlink:href="#C0_0_8b91072cef" x="296.346406" y="118.371121" style="fill: #5fb6a6; stroke: #0d0f12; stroke-width: 0.5"/>
    </g>
    <g clip-path="url(#p5086ccc43e)">
     <use xlink:href="#C0_0_8b91072cef" x="264.077858" y="97.593722" style="fill: #5fb6a6; stroke: #0d0f12; stroke-width: 0.5"/>
    </g>
    <g clip-path="url(#p5086ccc43e)">
     <use xlink:href="#C0_0_8b91072cef" x="118.705676" y="188.3075" style="fill: #e8643c; stroke: #0d0f12; stroke-width: 0.5"/>
    </g>
   </g>
   <g id="text_1">
    <!-- — decision boundary -->
    <g style="fill: #ece7df" transform="translate(18.1656 26.714438) scale(0.1 -0.1)">
     <defs>
      <path id="DejaVuSans-2014" d="M 313 1978 
L 6088 1978 
L 6088 1528 
L 313 1528 
L 313 1978 
z
" transform="scale(0.015625)"/>
      <path id="DejaVuSans-20" transform="scale(0.015625)"/>
      <path id="DejaVuSans-64" d="M 2906 2969 
L 2906 4863 
L 3481 4863 
L 3481 0 
L 2906 0 
L 2906 525 
Q 2725 213 2448 61 
Q 2172 -91 1784 -91 
Q 1150 -91 751 415 
Q 353 922 353 1747 
Q 353 2572 751 3078 
Q 1150 3584 1784 3584 
Q 2172 3584 2448 3432 
Q 2725 3281 2906 2969 
z
M 947 1747 
Q 947 1113 1208 752 
Q 1469 391 1925 391 
Q 2381 391 2643 752 
Q 2906 1113 2906 1747 
Q 2906 2381 2643 2742 
Q 2381 3103 1925 3103 
Q 1469 3103 1208 2742 
Q 947 2381 947 1747 
z
" transform="scale(0.015625)"/>
      <path id="DejaVuSans-65" d="M 3597 1894 
L 3597 1613 
L 953 1613 
Q 991 1019 1311 708 
Q 1631 397 2203 397 
Q 2534 397 2845 478 
Q 3156 559 3463 722 
L 3463 178 
Q 3153 47 2828 -22 
Q 2503 -91 2169 -91 
Q 1331 -91 842 396 
Q 353 884 353 1716 
Q 353 2575 817 3079 
Q 1281 3584 2069 3584 
Q 2775 3584 3186 3129 
Q 3597 2675 3597 1894 
z
M 3022 2063 
Q 3016 2534 2758 2815 
Q 2500 3097 2075 3097 
Q 1594 3097 1305 2825 
Q 1016 2553 972 2059 
L 3022 2063 
z
" transform="scale(0.015625)"/>
      <path id="DejaVuSans-63" d="M 3122 3366 
L 3122 2828 
Q 2878 2963 2633 3030 
Q 2388 3097 2138 3097 
Q 1578 3097 1268 2742 
Q 959 2388 959 1747 
Q 959 1106 1268 751 
Q 1578 397 2138 397 
Q 2388 397 2633 464 
Q 2878 531 3122 666 
L 3122 134 
Q 2881 22 2623 -34 
Q 2366 -91 2075 -91 
Q 1284 -91 818 406 
Q 353 903 353 1747 
Q 353 2603 823 3093 
Q 1294 3584 2113 3584 
Q 2378 3584 2631 3529 
Q 2884 3475 3122 3366 
z
" transform="scale(0.015625)"/>
      <path id="DejaVuSans-69" d="M 603 3500 
L 1178 3500 
L 1178 0 
L 603 0 
L 603 3500 
z
M 603 4863 
L 1178 4863 
L 1178 4134 
L 603 4134 
L 603 4863 
z
" transform="scale(0.015625)"/>
      <path id="DejaVuSans-73" d="M 2834 3397 
L 2834 2853 
Q 2591 2978 2328 3040 
Q 2066 3103 1784 3103 
Q 1356 3103 1142 2972 
Q 928 2841 928 2578 
Q 928 2378 1081 2264 
Q 1234 2150 1697 2047 
L 1894 2003 
Q 2506 1872 2764 1633 
Q 3022 1394 3022 966 
Q 3022 478 2636 193 
Q 2250 -91 1575 -91 
Q 1294 -91 989 -36 
Q 684 19 347 128 
L 347 722 
Q 666 556 975 473 
Q 1284 391 1588 391 
Q 1994 391 2212 530 
Q 2431 669 2431 922 
Q 2431 1156 2273 1281 
Q 2116 1406 1581 1522 
L 1381 1569 
Q 847 1681 609 1914 
Q 372 2147 372 2553 
Q 372 3047 722 3315 
Q 1072 3584 1716 3584 
Q 2034 3584 2315 3537 
Q 2597 3491 2834 3397 
z
" transform="scale(0.015625)"/>
      <path id="DejaVuSans-6f" d="M 1959 3097 
Q 1497 3097 1228 2736 
Q 959 2375 959 1747 
Q 959 1119 1226 758 
Q 1494 397 1959 397 
Q 2419 397 2687 759 
Q 2956 1122 2956 1747 
Q 2956 2369 2687 2733 
Q 2419 3097 1959 3097 
z
M 1959 3584 
Q 2709 3584 3137 3096 
Q 3566 2609 3566 1747 
Q 3566 888 3137 398 
Q 2709 -91 1959 -91 
Q 1206 -91 779 398 
Q 353 888 353 1747 
Q 353 2609 779 3096 
Q 1206 3584 1959 3584 
z
" transform="scale(0.015625)"/>
      <path id="DejaVuSans-6e" d="M 3513 2113 
L 3513 0 
L 2938 0 
L 2938 2094 
Q 2938 2591 2744 2837 
Q 2550 3084 2163 3084 
Q 1697 3084 1428 2787 
Q 1159 2491 1159 1978 
L 1159 0 
L 581 0 
L 581 3500 
L 1159 3500 
L 1159 2956 
Q 1366 3272 1645 3428 
Q 1925 3584 2291 3584 
Q 2894 3584 3203 3211 
Q 3513 2838 3513 2113 
z
" transform="scale(0.015625)"/>
      <path id="DejaVuSans-62" d="M 3116 1747 
Q 3116 2381 2855 2742 
Q 2594 3103 2138 3103 
Q 1681 3103 1420 2742 
Q 1159 2381 1159 1747 
Q 1159 1113 1420 752 
Q 1681 391 2138 391 
Q 2594 391 2855 752 
Q 3116 1113 3116 1747 
z
M 1159 2969 
Q 1341 3281 1617 3432 
Q 1894 3584 2278 3584 
Q 2916 3584 3314 3078 
Q 3713 2572 3713 1747 
Q 3713 922 3314 415 
Q 2916 -91 2278 -91 
Q 1894 -91 1617 61 
Q 1341 213 1159 525 
L 1159 0 
L 581 0 
L 581 4863 
L 1159 4863 
L 1159 2969 
z
" transform="scale(0.015625)"/>
      <path id="DejaVuSans-75" d="M 544 1381 
L 544 3500 
L 1119 3500 
L 1119 1403 
Q 1119 906 1312 657 
Q 1506 409 1894 409 
Q 2359 409 2629 706 
Q 2900 1003 2900 1516 
L 2900 3500 
L 3475 3500 
L 3475 0 
L 2900 0 
L 2900 538 
Q 2691 219 2414 64 
Q 2138 -91 1772 -91 
Q 1169 -91 856 284 
Q 544 659 544 1381 
z
M 1991 3584 
L 1991 3584 
z
" transform="scale(0.015625)"/>
      <path id="DejaVuSans-61" d="M 2194 1759 
Q 1497 1759 1228 1600 
Q 959 1441 959 1056 
Q 959 750 1161 570 
Q 1363 391 1709 391 
Q 2188 391 2477 730 
Q 2766 1069 2766 1631 
L 2766 1759 
L 2194 1759 
z
M 3341 1997 
L 3341 0 
L 2766 0 
L 2766 531 
Q 2569 213 2275 61 
Q 1981 -91 1556 -91 
Q 1019 -91 701 211 
Q 384 513 384 1019 
Q 384 1609 779 1909 
Q 1175 2209 1959 2209 
L 2766 2209 
L 2766 2266 
Q 2766 2663 2505 2880 
Q 2244 3097 1772 3097 
Q 1472 3097 1187 3025 
Q 903 2953 641 2809 
L 641 3341 
Q 956 3463 1253 3523 
Q 1550 3584 1831 3584 
Q 2591 3584 2966 3190 
Q 3341 2797 3341 1997 
z
" transform="scale(0.015625)"/>
      <path id="DejaVuSans-72" d="M 2631 2963 
Q 2534 3019 2420 3045 
Q 2306 3072 2169 3072 
Q 1681 3072 1420 2755 
Q 1159 2438 1159 1844 
L 1159 0 
L 581 0 
L 581 3500 
L 1159 3500 
L 1159 2956 
Q 1341 3275 1631 3429 
Q 1922 3584 2338 3584 
Q 2397 3584 2469 3576 
Q 2541 3569 2628 3553 
L 2631 2963 
z
" transform="scale(0.015625)"/>
      <path id="DejaVuSans-79" d="M 2059 -325 
Q 1816 -950 1584 -1140 
Q 1353 -1331 966 -1331 
L 506 -1331 
L 506 -850 
L 844 -850 
Q 1081 -850 1212 -737 
Q 1344 -625 1503 -206 
L 1606 56 
L 191 3500 
L 800 3500 
L 1894 763 
L 2988 3500 
L 3597 3500 
L 2059 -325 
z
" transform="scale(0.015625)"/>
     </defs>
     <use xlink:href="#DejaVuSans-2014"/>
     <use xlink:href="#DejaVuSans-20" transform="translate(100 0)"/>
     <use xlink:href="#DejaVuSans-64" transform="translate(131.787109 0)"/>
     <use xlink:href="#DejaVuSans-65" transform="translate(195.263672 0)"/>
     <use xlink:href="#DejaVuSans-63" transform="translate(256.787109 0)"/>
     <use xlink:href="#DejaVuSans-69" transform="translate(311.767578 0)"/>
     <use xlink:href="#DejaVuSans-73" transform="translate(339.550781 0)"/>
     <use xlink:href="#DejaVuSans-69" transform="translate(391.650391 0)"/>
     <use xlink:href="#DejaVuSans-6f" transform="translate(419.433594 0)"/>
     <use xlink:href="#DejaVuSans-6e" transform="translate(480.615234 0)"/>
     <use xlink:href="#DejaVuSans-20" transform="translate(543.994141 0)"/>
     <use xlink:href="#DejaVuSans-62" transform="translate(575.78125 0)"/>
     <use xlink:href="#DejaVuSans-6f" transform="translate(639.257812 0)"/>
     <use xlink:href="#DejaVuSans-75" transform="translate(700.439453 0)"/>
     <use xlink:href="#DejaVuSans-6e" transform="translate(763.818359 0)"/>
     <use xlink:href="#DejaVuSans-64" transform="translate(827.197266 0)"/>
     <use xlink:href="#DejaVuSans-61" transform="translate(890.673828 0)"/>
     <use xlink:href="#DejaVuSans-72" transform="translate(951.953125 0)"/>
     <use xlink:href="#DejaVuSans-79" transform="translate(993.066406 0)"/>
    </g>
   </g>
   <g id="text_2">
    <!-- - - margins -->
    <g style="fill: #9a9389" transform="translate(18.1656 43.346437) scale(0.1 -0.1)">
     <defs>
      <path id="DejaVuSans-2d" d="M 313 2009 
L 1997 2009 
L 1997 1497 
L 313 1497 
L 313 2009 
z
" transform="scale(0.015625)"/>
      <path id="DejaVuSans-6d" d="M 3328 2828 
Q 3544 3216 3844 3400 
Q 4144 3584 4550 3584 
Q 5097 3584 5394 3201 
Q 5691 2819 5691 2113 
L 5691 0 
L 5113 0 
L 5113 2094 
Q 5113 2597 4934 2840 
Q 4756 3084 4391 3084 
Q 3944 3084 3684 2787 
Q 3425 2491 3425 1978 
L 3425 0 
L 2847 0 
L 2847 2094 
Q 2847 2600 2669 2842 
Q 2491 3084 2119 3084 
Q 1678 3084 1418 2786 
Q 1159 2488 1159 1978 
L 1159 0 
L 581 0 
L 581 3500 
L 1159 3500 
L 1159 2956 
Q 1356 3278 1631 3431 
Q 1906 3584 2284 3584 
Q 2666 3584 2933 3390 
Q 3200 3197 3328 2828 
z
" transform="scale(0.015625)"/>
      <path id="DejaVuSans-67" d="M 2906 1791 
Q 2906 2416 2648 2759 
Q 2391 3103 1925 3103 
Q 1463 3103 1205 2759 
Q 947 2416 947 1791 
Q 947 1169 1205 825 
Q 1463 481 1925 481 
Q 2391 481 2648 825 
Q 2906 1169 2906 1791 
z
M 3481 434 
Q 3481 -459 3084 -895 
Q 2688 -1331 1869 -1331 
Q 1566 -1331 1297 -1286 
Q 1028 -1241 775 -1147 
L 775 -588 
Q 1028 -725 1275 -790 
Q 1522 -856 1778 -856 
Q 2344 -856 2625 -561 
Q 2906 -266 2906 331 
L 2906 616 
Q 2728 306 2450 153 
Q 2172 0 1784 0 
Q 1141 0 747 490 
Q 353 981 353 1791 
Q 353 2603 747 3093 
Q 1141 3584 1784 3584 
Q 2172 3584 2450 3431 
Q 2728 3278 2906 2969 
L 2906 3500 
L 3481 3500 
L 3481 434 
z
" transform="scale(0.015625)"/>
     </defs>
     <use xlink:href="#DejaVuSans-2d"/>
     <use xlink:href="#DejaVuSans-2d" transform="translate(36.083984 0)"/>
     <use xlink:href="#DejaVuSans-20" transform="translate(72.167969 0)"/>
     <use xlink:href="#DejaVuSans-6d" transform="translate(103.955078 0)"/>
     <use xlink:href="#DejaVuSans-61" transform="translate(201.367188 0)"/>
     <use xlink:href="#DejaVuSans-72" transform="translate(262.646484 0)"/>
     <use xlink:href="#DejaVuSans-67" transform="translate(302.009766 0)"/>
     <use xlink:href="#DejaVuSans-69" transform="translate(365.486328 0)"/>
     <use xlink:href="#DejaVuSans-6e" transform="translate(393.269531 0)"/>
     <use xlink:href="#DejaVuSans-73" transform="translate(456.648438 0)"/>
    </g>
   </g>
   <g id="text_3">
    <!-- ○ support vectors -->
    <g style="fill: #d8a657" transform="translate(18.1656 59.978438) scale(0.1 -0.1)">
     <defs>
      <path id="DejaVuSans-25cb" d="M 1756 3459 
Q 716 2859 716 1662 
Q 716 466 1756 -134 
Q 2272 -434 2791 -434 
Q 3313 -434 3828 -134 
Q 4869 466 4869 1662 
Q 4869 2859 3828 3459 
Q 3313 3759 2791 3759 
Q 2272 3759 1756 3459 
z
M 1572 -450 
Q 350 256 350 1662 
Q 350 3069 1572 3775 
Q 2181 4128 2791 4128 
Q 3403 4128 4013 3775 
Q 5234 3069 5234 1662 
Q 5234 256 4013 -450 
Q 3403 -803 2791 -803 
Q 2181 -803 1572 -450 
z
" transform="scale(0.015625)"/>
      <path id="DejaVuSans-70" d="M 1159 525 
L 1159 -1331 
L 581 -1331 
L 581 3500 
L 1159 3500 
L 1159 2969 
Q 1341 3281 1617 3432 
Q 1894 3584 2278 3584 
Q 2916 3584 3314 3078 
Q 3713 2572 3713 1747 
Q 3713 922 3314 415 
Q 2916 -91 2278 -91 
Q 1894 -91 1617 61 
Q 1341 213 1159 525 
z
M 3116 1747 
Q 3116 2381 2855 2742 
Q 2594 3103 2138 3103 
Q 1681 3103 1420 2742 
Q 1159 2381 1159 1747 
Q 1159 1113 1420 752 
Q 1681 391 2138 391 
Q 2594 391 2855 752 
Q 3116 1113 3116 1747 
z
" transform="scale(0.015625)"/>
      <path id="DejaVuSans-74" d="M 1172 4494 
L 1172 3500 
L 2356 3500 
L 2356 3053 
L 1172 3053 
L 1172 1153 
Q 1172 725 1289 603 
Q 1406 481 1766 481 
L 2356 481 
L 2356 0 
L 1766 0 
Q 1100 0 847 248 
Q 594 497 594 1153 
L 594 3053 
L 172 3053 
L 172 3500 
L 594 3500 
L 594 4494 
L 1172 4494 
z
" transform="scale(0.015625)"/>
      <path id="DejaVuSans-76" d="M 191 3500 
L 800 3500 
L 1894 563 
L 2988 3500 
L 3597 3500 
L 2284 0 
L 1503 0 
L 191 3500 
z
" transform="scale(0.015625)"/>
     </defs>
     <use xlink:href="#DejaVuSans-25cb"/>
     <use xlink:href="#DejaVuSans-20" transform="translate(87.255859 0)"/>
     <use xlink:href="#DejaVuSans-73" transform="translate(119.042969 0)"/>
     <use xlink:href="#DejaVuSans-75" transform="translate(171.142578 0)"/>
     <use xlink:href="#DejaVuSans-70" transform="translate(234.521484 0)"/>
     <use xlink:href="#DejaVuSans-70" transform="translate(297.998047 0)"/>
     <use xlink:href="#DejaVuSans-6f" transform="translate(361.474609 0)"/>
     <use xlink:href="#DejaVuSans-72" transform="translate(422.65625 0)"/>
     <use xlink:href="#DejaVuSans-74" transform="translate(463.769531 0)"/>
     <use xlink:href="#DejaVuSans-20" transform="translate(502.978516 0)"/>
     <use xlink:href="#DejaVuSans-76" transform="translate(534.765625 0)"/>
     <use xlink:href="#DejaVuSans-65" transform="translate(593.945312 0)"/>
     <use xlink:href="#DejaVuSans-63" transform="translate(655.46875 0)"/>
     <use xlink:href="#DejaVuSans-74" transform="translate(710.449219 0)"/>
     <use xlink:href="#DejaVuSans-6f" transform="translate(749.658203 0)"/>
     <use xlink:href="#DejaVuSans-72" transform="translate(810.839844 0)"/>
     <use xlink:href="#DejaVuSans-73" transform="translate(851.953125 0)"/>
    </g>
   </g>
   <g id="PathCollection_2">
    <defs>
     <path id="C1_0_2f99717b43" d="M 0 6.324555 
C 1.677292 6.324555 3.286112 5.65816 4.472136 4.472136 
C 5.65816 3.286112 6.324555 1.677292 6.324555 -0 
C 6.324555 -1.677292 5.65816 -3.286112 4.472136 -4.472136 
C 3.286112 -5.65816 1.677292 -6.324555 0 -6.324555 
C -1.677292 -6.324555 -3.286112 -5.65816 -4.472136 -4.472136 
C -5.65816 -3.286112 -6.324555 -1.677292 -6.324555 0 
C -6.324555 1.677292 -5.65816 3.286112 -4.472136 4.472136 
C -3.286112 5.65816 -1.677292 6.324555 0 6.324555 
z
"/>
    </defs>
    <g clip-path="url(#p5086ccc43e)">
     <use xlink:href="#C1_0_2f99717b43" x="223.014052" y="192.380881" style="fill: none; stroke: #d8a657; stroke-width: 2.2"/>
    </g>
    <g clip-path="url(#p5086ccc43e)">
     <use xlink:href="#C1_0_2f99717b43" x="113.046898" y="136.819085" style="fill: none; stroke: #d8a657; stroke-width: 2.2"/>
    </g>
    <g clip-path="url(#p5086ccc43e)">
     <use xlink:href="#C1_0_2f99717b43" x="231.572969" y="129.044637" style="fill: none; stroke: #d8a657; stroke-width: 2.2"/>
    </g>
   </g>
  </g>
 </g>
 <defs>
  <clipPath id="p5086ccc43e">
   <rect x="10.8" y="10.8" width="368.28" height="277.2"/>
  </clipPath>
 </defs>
</svg>
